<svg width="69" height="69" viewBox="0 0 69 69" fill="none" xmlns="http://www.w3.org/2000/svg">
<g filter="url(#filter0_d_211_854)">
<path fill-rule="evenodd" clip-rule="evenodd" d="M34.5 55C45.8218 55 55 45.8218 55 34.5C55 23.1782 45.8218 14 34.5 14C23.1782 14 14 23.1782 14 34.5C14 45.8218 23.1782 55 34.5 55Z" fill="white"/>
</g>
<path d="M36.2722 30.4616V32.9223H39.37L38.9363 36.2879H36.2722V44H32.8936V36.2879H30V32.9223H32.8936V30.4616C32.8936 27.7975 35.048 26 37.7129 26C38.8857 26 39.6248 26.1789 39.6248 26.1789V29.0218H37.7129C36.9223 29.0218 36.2722 29.6719 36.2722 30.4616Z" fill="#D09172"/>
<defs>
<filter id="filter0_d_211_854" x="0" y="0" width="69" height="69" filterUnits="userSpaceOnUse" color-interpolation-filters="sRGB">
<feFlood flood-opacity="0" result="BackgroundImageFix"/>
<feColorMatrix in="SourceAlpha" type="matrix" values="0 0 0 0 0 0 0 0 0 0 0 0 0 0 0 0 0 0 127 0" result="hardAlpha"/>
<feOffset/>
<feGaussianBlur stdDeviation="7"/>
<feComposite in2="hardAlpha" operator="out"/>
<feColorMatrix type="matrix" values="0 0 0 0 0.784314 0 0 0 0 0.635294 0 0 0 0 0.792157 0 0 0 0.27 0"/>
<feBlend mode="normal" in2="BackgroundImageFix" result="effect1_dropShadow_211_854"/>
<feBlend mode="normal" in="SourceGraphic" in2="effect1_dropShadow_211_854" result="shape"/>
</filter>
</defs>
</svg>
