<svg width="86" height="13" viewBox="0 0 86 13" fill="none" xmlns="http://www.w3.org/2000/svg">
<path d="M43 10.4479L47.326 13L46.178 8.19L50 4.95368L44.967 4.53632L43 0L41.033 4.53632L36 4.95368L39.822 8.19L38.674 13L43 10.4479Z" fill="#171615"/>
<path d="M6.5 10.4479L10.517 13L9.451 8.19L13 4.95368L8.3265 4.53632L6.5 0L4.6735 4.53632L0 4.95368L3.549 8.19L2.483 13L6.5 10.4479Z" fill="#171615"/>
<path d="M25 10.4479L29.326 13L28.178 8.19L32 4.95368L26.967 4.53632L25 0L23.033 4.53632L18 4.95368L21.822 8.19L20.674 13L25 10.4479Z" fill="#171615"/>
<path d="M61 10.4479L65.326 13L64.178 8.19L68 4.95368L62.967 4.53632L61 0L59.033 4.53632L54 4.95368L57.822 8.19L56.674 13L61 10.4479Z" fill="#171615"/>
<path d="M80.5078 4.73535L80.627 5.00977L80.9258 5.03418L84.7549 5.35156L81.8545 7.80859L81.6201 8.00684L81.6914 8.30566L82.5664 11.9707L79.2539 10.0176L79 9.86719L78.7461 10.0176L75.4326 11.9707L76.3086 8.30566L76.3799 8.00684L76.1455 7.80859L73.2441 5.35156L77.0742 5.03418L77.373 5.00977L77.4922 4.73535L79 1.25684L80.5078 4.73535Z" stroke="#171615"/>
</svg>
