<svg width="69" height="69" viewBox="0 0 69 69" fill="none" xmlns="http://www.w3.org/2000/svg">
<g filter="url(#filter0_d_211_857)">
<path fill-rule="evenodd" clip-rule="evenodd" d="M34.5 55C45.8218 55 55 45.8218 55 34.5C55 23.1782 45.8218 14 34.5 14C23.1782 14 14 23.1782 14 34.5C14 45.8218 23.1782 55 34.5 55Z" fill="white"/>
</g>
<path d="M36.2503 33.7749L42.0366 27H40.6651L35.6423 32.8823L31.6286 27H27L33.0686 35.896L27 43H28.3714L33.6766 36.7874L37.9154 43H42.544L36.2503 33.7749ZM34.3726 35.9737L33.7577 35.088L28.8651 28.04H30.9714L34.9189 33.728L35.5337 34.6137L40.6663 42.008H38.56L34.3726 35.9737Z" fill="#D09172"/>
<defs>
<filter id="filter0_d_211_857" x="0" y="0" width="69" height="69" filterUnits="userSpaceOnUse" color-interpolation-filters="sRGB">
<feFlood flood-opacity="0" result="BackgroundImageFix"/>
<feColorMatrix in="SourceAlpha" type="matrix" values="0 0 0 0 0 0 0 0 0 0 0 0 0 0 0 0 0 0 127 0" result="hardAlpha"/>
<feOffset/>
<feGaussianBlur stdDeviation="7"/>
<feComposite in2="hardAlpha" operator="out"/>
<feColorMatrix type="matrix" values="0 0 0 0 0.784314 0 0 0 0 0.635294 0 0 0 0 0.792157 0 0 0 0.27 0"/>
<feBlend mode="normal" in2="BackgroundImageFix" result="effect1_dropShadow_211_857"/>
<feBlend mode="normal" in="SourceGraphic" in2="effect1_dropShadow_211_857" result="shape"/>
</filter>
</defs>
</svg>
