<svg width="1600" height="664" viewBox="0 0 1600 664" fill="none" xmlns="http://www.w3.org/2000/svg">
<path d="M0 0H1600V664H0V0Z" fill="#FFF7F3"/>
<path d="M1545.77 86.1016L1484 67.0342L1484 46.7852L1562.2 75.5205L1562.2 88.3574L1545.77 86.1016ZM1484 101.893L1545.77 82.7715L1562.2 80.3008L1562.2 93.2988L1484 122.195L1484 101.893ZM1513.17 101.141L1498.61 101.141L1498.61 61.0186L1513.17 61.0186L1513.17 101.141ZM1517.25 164.247L1517.25 144.105L1529.6 143.998L1529.6 160.326C1529.6 163.262 1529.92 165.607 1530.57 167.362C1531.25 169.116 1532.23 170.388 1533.52 171.175C1534.81 171.999 1536.42 172.411 1538.36 172.411C1540.58 172.411 1542.37 171.999 1543.73 171.175C1545.09 170.352 1546.07 169.045 1546.68 167.254C1547.33 165.5 1547.65 163.226 1547.65 160.433L1547.65 151.195L1484 151.195L1484 132.342L1562.2 132.342L1562.2 160.433C1562.2 165.267 1561.76 169.582 1560.86 173.378C1560 177.173 1558.68 180.396 1556.89 183.046C1555.1 185.731 1552.84 187.772 1550.12 189.169C1547.43 190.565 1544.26 191.263 1540.61 191.263C1537.42 191.263 1534.43 190.583 1531.64 189.222C1528.85 187.862 1526.57 185.588 1524.82 182.401C1523.1 179.25 1522.21 174.935 1522.13 169.457L1517.25 164.247ZM1484 163.495L1484 139.54L1498.5 145.985L1498.5 163.495C1498.5 166.073 1498.9 168.132 1499.68 169.671C1500.51 171.247 1501.58 172.375 1502.91 173.055C1504.27 173.771 1505.77 174.129 1507.42 174.129C1509.42 174.129 1511.16 173.789 1512.63 173.109C1514.1 172.464 1515.22 171.426 1516.01 169.994C1516.84 168.561 1517.25 166.646 1517.25 164.247L1517.25 148.402L1529.6 148.509L1529.6 167.469L1524.66 171.874C1524.87 177.101 1524.14 181.237 1522.46 184.281C1520.77 187.36 1518.55 189.562 1515.8 190.887C1513.04 192.212 1510.16 192.875 1507.15 192.875C1502.03 192.875 1497.75 191.765 1494.31 189.545C1490.87 187.36 1488.3 184.084 1486.58 179.715C1484.86 175.347 1484 169.94 1484 163.495ZM1524.66 273.92L1521.49 273.92C1515.51 273.92 1510.14 273.079 1505.38 271.396C1500.65 269.749 1496.6 267.403 1493.24 264.36C1489.91 261.316 1487.35 257.717 1485.56 253.564C1483.8 249.41 1482.93 244.827 1482.93 239.814C1482.93 234.765 1483.8 230.146 1485.56 225.956C1487.35 221.803 1489.91 218.186 1493.24 215.107C1496.6 212.063 1500.65 209.7 1505.38 208.017C1510.14 206.37 1515.51 205.546 1521.49 205.546L1524.66 205.546C1530.64 205.546 1536.01 206.37 1540.77 208.017C1545.53 209.7 1549.58 212.045 1552.91 215.053C1556.28 218.097 1558.84 221.695 1560.59 225.849C1562.38 230.038 1563.28 234.657 1563.28 239.706C1563.28 244.719 1562.38 249.303 1560.59 253.456C1558.84 257.646 1556.28 261.262 1552.91 264.306C1549.58 267.349 1545.53 269.713 1540.77 271.396C1536.01 273.079 1530.64 273.92 1524.66 273.92ZM1521.49 254.799L1524.77 254.799C1528.63 254.799 1532.04 254.459 1534.97 253.779C1537.94 253.134 1540.43 252.167 1542.44 250.878C1544.44 249.589 1545.95 247.996 1546.95 246.098C1547.99 244.236 1548.51 242.105 1548.51 239.706C1548.51 237.2 1547.99 235.015 1546.95 233.154C1545.95 231.292 1544.44 229.734 1542.44 228.481C1540.43 227.227 1537.94 226.279 1534.97 225.634C1532.04 225.025 1528.63 224.721 1524.77 224.721L1521.49 224.721C1517.66 224.721 1514.26 225.025 1511.29 225.634C1508.35 226.279 1505.86 227.227 1503.82 228.481C1501.78 229.77 1500.24 231.345 1499.2 233.207C1498.16 235.105 1497.64 237.307 1497.64 239.814C1497.64 242.213 1498.16 244.343 1499.2 246.205C1500.24 248.067 1501.78 249.625 1503.82 250.878C1505.86 252.167 1508.35 253.134 1511.29 253.779C1514.26 254.459 1517.66 254.799 1521.49 254.799ZM1562.2 330.527L1562.2 349.38L1511.12 349.38C1505.04 349.38 1499.88 348.109 1495.66 345.566C1491.47 343.024 1488.3 339.461 1486.15 334.878C1484 330.294 1482.93 324.905 1482.93 318.711C1482.93 312.588 1484 307.199 1486.15 302.544C1488.3 297.925 1491.47 294.308 1495.66 291.694C1499.88 289.116 1505.04 287.827 1511.12 287.827L1562.2 287.827L1562.2 306.733L1511.12 306.733C1507.9 306.733 1505.27 307.199 1503.23 308.13C1501.22 309.061 1499.76 310.421 1498.82 312.212C1497.89 314.002 1497.43 316.168 1497.43 318.711C1497.43 321.289 1497.89 323.455 1498.82 325.21C1499.76 326.964 1501.22 328.289 1503.23 329.184C1505.27 330.08 1507.9 330.527 1511.12 330.527L1562.2 330.527ZM1562.2 403.516L1484 403.516L1484 384.663L1562.2 384.663L1562.2 403.516ZM1562.2 427.041L1547.65 427.041L1547.65 361.675L1562.2 361.675L1562.2 427.041ZM1562.2 510.446L1562.2 529.298L1511.12 529.298C1505.04 529.298 1499.88 528.027 1495.66 525.485C1491.47 522.943 1488.3 519.38 1486.15 514.796C1484 510.213 1482.93 504.824 1482.93 498.629C1482.93 492.506 1484 487.117 1486.15 482.462C1488.3 477.843 1491.47 474.227 1495.66 471.613C1499.88 469.035 1505.04 467.746 1511.12 467.746L1562.2 467.746L1562.2 486.652L1511.12 486.652C1507.9 486.652 1505.27 487.117 1503.23 488.048C1501.22 488.979 1499.76 490.34 1498.82 492.13C1497.89 493.921 1497.43 496.087 1497.43 498.629C1497.43 501.208 1497.89 503.374 1498.82 505.129C1499.76 506.883 1501.22 508.208 1503.23 509.103C1505.27 509.998 1507.9 510.446 1511.12 510.446L1562.2 510.446ZM1504.79 585.852C1506 585.852 1507.1 585.673 1508.06 585.315C1509.07 584.957 1510 584.294 1510.86 583.327C1511.71 582.361 1512.57 580.964 1513.43 579.138C1514.33 577.348 1515.26 574.984 1516.23 572.048C1517.37 568.611 1518.66 565.298 1520.09 562.112C1521.56 558.925 1523.26 556.078 1525.2 553.571C1527.17 551.065 1529.46 549.078 1532.07 547.61C1534.72 546.141 1537.8 545.407 1541.31 545.407C1544.68 545.407 1547.7 546.159 1550.39 547.663C1553.11 549.167 1555.42 551.262 1557.32 553.947C1559.25 556.669 1560.72 559.856 1561.72 563.508C1562.76 567.16 1563.28 571.153 1563.28 575.486C1563.28 581.215 1562.27 586.264 1560.27 590.632C1558.3 595.036 1555.49 598.474 1551.84 600.945C1548.22 603.451 1543.94 604.704 1539 604.704L1539 585.959C1540.97 585.959 1542.71 585.547 1544.21 584.724C1545.71 583.936 1546.9 582.737 1547.75 581.125C1548.61 579.514 1549.04 577.491 1549.04 575.056C1549.04 572.693 1548.69 570.705 1547.97 569.094C1547.25 567.483 1546.29 566.265 1545.07 565.442C1543.89 564.618 1542.58 564.206 1541.15 564.206C1539.97 564.206 1538.89 564.529 1537.93 565.173C1536.99 565.853 1536.12 566.802 1535.29 568.02C1534.47 569.273 1533.68 570.777 1532.93 572.531C1532.18 574.322 1531.44 576.327 1530.73 578.547C1529.4 582.701 1527.92 586.389 1526.27 589.612C1524.66 592.87 1522.82 595.609 1520.74 597.829C1518.7 600.085 1516.37 601.786 1513.76 602.932C1511.14 604.113 1508.19 604.704 1504.89 604.704C1501.38 604.704 1498.27 604.024 1495.55 602.663C1492.83 601.303 1490.52 599.351 1488.62 596.809C1486.76 594.266 1485.34 591.223 1484.38 587.678C1483.41 584.133 1482.93 580.176 1482.93 575.808C1482.93 571.797 1483.43 567.841 1484.43 563.938C1485.47 560.07 1487.04 556.561 1489.16 553.41C1491.3 550.259 1494.04 547.735 1497.37 545.837C1500.74 543.975 1504.73 543.044 1509.35 543.044L1509.35 561.95C1507.06 561.95 1505.13 562.255 1503.55 562.863C1501.98 563.472 1500.7 564.367 1499.74 565.549C1498.81 566.731 1498.13 568.181 1497.7 569.9C1497.3 571.618 1497.11 573.588 1497.11 575.808C1497.11 578.207 1497.45 580.14 1498.13 581.609C1498.84 583.077 1499.77 584.151 1500.92 584.831C1502.1 585.512 1503.39 585.852 1504.79 585.852Z" fill="#F9EFEA"/>
</svg>
