<svg width="191" height="186" viewBox="0 0 191 186" fill="none" xmlns="http://www.w3.org/2000/svg">
<g filter="url(#filter0_d_4606_9)">
<circle cx="43" cy="43" r="43" transform="matrix(1 0 0 -1 55 136)" fill="white"/>
</g>
<path d="M151 94C151 101.091 149.603 108.113 146.889 114.665C144.176 121.216 140.198 127.169 135.184 132.184C130.169 137.198 124.216 141.176 117.665 143.889C111.113 146.603 104.091 148 97 148C89.9086 148 82.8867 146.603 76.3351 143.889C69.7835 141.176 63.8306 137.198 58.8162 132.184C53.8019 127.169 49.8243 121.216 47.1105 114.665C44.3968 108.113 43 101.091 43 94H44.8475C44.8475 100.849 46.1965 107.63 48.8174 113.958C51.4383 120.285 55.2798 126.035 60.1226 130.877C64.9654 135.72 70.7147 139.562 77.0421 142.183C83.3695 144.803 90.1512 146.152 97 146.152C103.849 146.152 110.63 144.803 116.958 142.183C123.285 139.562 129.035 135.72 133.877 130.877C138.72 126.035 142.562 120.285 145.183 113.958C147.803 107.63 149.152 100.849 149.152 94H151Z" fill="#D09172"/>
<path d="M191 93C191 105.213 188.594 117.306 183.921 128.59C179.247 139.873 172.397 150.125 163.761 158.761C155.125 167.397 144.873 174.247 133.59 178.921C122.306 183.594 110.213 186 98 186C85.7871 186 73.6937 183.594 62.4104 178.921C51.1272 174.247 40.8749 167.397 32.2391 158.761C23.6032 150.125 16.7529 139.873 12.0792 128.59C7.40551 117.306 5 105.213 5 93H8.18187C8.18187 104.795 10.5051 116.475 15.0189 127.372C19.5326 138.269 26.1486 148.171 34.489 156.511C42.8294 164.851 52.7308 171.467 63.6281 175.981C74.5253 180.495 86.2049 182.818 98 182.818C109.795 182.818 121.475 180.495 132.372 175.981C143.269 171.467 153.171 164.851 161.511 156.511C169.851 148.171 176.467 138.269 180.981 127.372C185.495 116.475 187.818 104.795 187.818 93H191Z" fill="url(#paint0_linear_4606_9)"/>
<circle cx="7" cy="7" r="5.5" transform="matrix(1 0 0 -1 0 94)" stroke="url(#paint1_linear_4606_9)" stroke-width="3"/>
<circle cx="5" cy="5" r="4.25" transform="matrix(1 0 0 -1 146 94)" stroke="url(#paint2_linear_4606_9)" stroke-width="1.5"/>
<path d="M97.9219 98.9644H97.1896C97.102 98.6932 96.9925 98.4297 96.8622 98.1762L97.3807 97.6577C97.4344 97.604 97.477 97.5403 97.5061 97.4701C97.5352 97.4 97.5501 97.3248 97.5501 97.2489C97.5501 97.173 97.5352 97.0978 97.5061 97.0277C97.477 96.9575 97.4344 96.8938 97.3807 96.8402L95.8942 95.3536C95.8405 95.2999 95.7768 95.2573 95.7067 95.2283C95.6365 95.1992 95.5614 95.1843 95.4855 95.1843C95.4095 95.1843 95.3344 95.1992 95.2642 95.2283C95.1941 95.2573 95.1304 95.2999 95.0767 95.3536L94.5581 95.8722C94.3047 95.7419 94.0411 95.6324 93.77 95.5447V94.8125C93.77 94.6592 93.7091 94.5121 93.6006 94.4037C93.4922 94.2953 93.3452 94.2344 93.1918 94.2344H91.0894C90.9361 94.2344 90.789 94.2953 90.6806 94.4037C90.5722 94.5121 90.5113 94.6592 90.5113 94.8125V95.5448C90.2401 95.6324 89.9765 95.7419 89.7231 95.8722L89.2045 95.3536C89.1509 95.2999 89.0871 95.2573 89.017 95.2283C88.9469 95.1992 88.8717 95.1843 88.7958 95.1843C88.7199 95.1843 88.6447 95.1992 88.5746 95.2283C88.5044 95.2573 88.4407 95.2999 88.387 95.3536L86.9005 96.8402C86.8468 96.8938 86.8042 96.9576 86.7751 97.0277C86.7461 97.0978 86.7311 97.173 86.7311 97.2489C86.7311 97.3248 86.7461 97.4 86.7751 97.4702C86.8042 97.5403 86.8468 97.604 86.9005 97.6577L87.4191 98.1763C87.2888 98.4297 87.1793 98.6933 87.0916 98.9644H86.3594C86.206 98.9644 86.059 99.0253 85.9506 99.1337C85.8422 99.2422 85.7812 99.3892 85.7812 99.5425V101.645C85.7812 101.798 85.8422 101.945 85.9506 102.054C86.059 102.162 86.206 102.223 86.3594 102.223H87.0916C87.1793 102.494 87.2888 102.758 87.4191 103.011L86.9005 103.53C86.8468 103.584 86.8042 103.647 86.7752 103.717C86.7461 103.788 86.7311 103.863 86.7311 103.939C86.7311 104.015 86.7461 104.09 86.7752 104.16C86.8042 104.23 86.8468 104.294 86.9005 104.347L88.387 105.834C88.4407 105.888 88.5044 105.93 88.5746 105.959C88.6447 105.988 88.7199 106.003 88.7958 106.003C88.8717 106.003 88.9469 105.988 89.017 105.959C89.0872 105.93 89.1509 105.888 89.2046 105.834L89.7231 105.315C89.9766 105.446 90.2401 105.555 90.5113 105.643V106.375C90.5113 106.528 90.5722 106.675 90.6806 106.784C90.789 106.892 90.9361 106.953 91.0894 106.953H93.1919C93.3452 106.953 93.4923 106.892 93.6007 106.784C93.7091 106.675 93.77 106.528 93.77 106.375V105.643C94.0412 105.555 94.3047 105.446 94.5582 105.315L95.0767 105.834C95.1304 105.888 95.1941 105.93 95.2643 105.959C95.3344 105.988 95.4096 106.003 95.4855 106.003C95.5614 106.003 95.6366 105.988 95.7067 105.959C95.7768 105.93 95.8406 105.888 95.8942 105.834L97.3807 104.347C97.4344 104.294 97.477 104.23 97.5061 104.16C97.5352 104.09 97.5501 104.014 97.5501 103.939C97.5501 103.863 97.5352 103.787 97.5061 103.717C97.477 103.647 97.4344 103.583 97.3807 103.53L96.8622 103.011C96.9924 102.758 97.102 102.494 97.1896 102.223H97.9219C98.0752 102.223 98.2223 102.162 98.3307 102.054C98.4391 101.945 98.5 101.798 98.5 101.645V99.5425C98.5 99.3892 98.4391 99.2421 98.3307 99.1337C98.2223 99.0253 98.0752 98.9644 97.9219 98.9644ZM97.3438 101.067H97.1428C96.9075 101.069 96.6791 101.146 96.4906 101.286C96.3022 101.427 96.1636 101.624 96.0952 101.849C96.0238 102.073 95.9334 102.291 95.8251 102.5C95.7138 102.707 95.6718 102.945 95.7054 103.178C95.739 103.412 95.8463 103.628 96.0116 103.796L96.1545 103.939L95.4855 104.608L95.3426 104.465C95.1749 104.299 94.9586 104.192 94.7255 104.158C94.4923 104.125 94.2545 104.167 94.0469 104.278C93.8381 104.387 93.6204 104.477 93.3962 104.548C93.1712 104.617 92.9739 104.755 92.8332 104.944C92.6924 105.132 92.6155 105.361 92.6137 105.596V105.797H91.6675V105.596C91.6657 105.361 91.5889 105.132 91.4481 104.944C91.3073 104.755 91.11 104.617 90.885 104.548C90.6609 104.477 90.4433 104.387 90.2346 104.278C90.027 104.167 89.7892 104.125 89.556 104.158C89.3228 104.192 89.1064 104.299 88.9386 104.465L88.7958 104.608L88.1268 103.939L88.2696 103.796C88.435 103.628 88.5423 103.412 88.5758 103.179C88.6094 102.945 88.5675 102.708 88.4562 102.5C88.3479 102.291 88.2575 102.074 88.1861 101.849C88.1176 101.624 87.9791 101.427 87.7906 101.286C87.6022 101.146 87.3737 101.069 87.1385 101.067H86.9375V100.121H87.1385C87.3737 100.119 87.6022 100.042 87.7906 99.9012C87.9791 99.7605 88.1176 99.5632 88.1861 99.3381C88.2574 99.114 88.3478 98.8965 88.4562 98.6877C88.5675 98.4801 88.6094 98.2423 88.5759 98.0091C88.5423 97.7759 88.435 97.5596 88.2696 97.3918L88.1268 97.2489L88.7958 96.5799L88.9386 96.7227C89.1064 96.8881 89.3227 96.9955 89.5558 97.029C89.789 97.0626 90.0267 97.0207 90.2343 96.9093C90.4432 96.801 90.6608 96.7106 90.885 96.6392C91.11 96.5708 91.3073 96.4322 91.4481 96.2438C91.5889 96.0553 91.6657 95.8268 91.6675 95.5916V95.3906H92.6137V95.5916C92.6155 95.8268 92.6924 96.0553 92.8331 96.2438C92.9739 96.4322 93.1712 96.5707 93.3962 96.6392C93.6203 96.7106 93.8379 96.8009 94.0466 96.9093C94.2543 97.0207 94.4921 97.0626 94.7253 97.0291C94.9585 96.9955 95.1748 96.8881 95.3426 96.7227L95.4854 96.5799L96.1545 97.2489L96.0116 97.3918C95.8463 97.5595 95.739 97.7758 95.7054 98.0089C95.6718 98.2421 95.7138 98.4799 95.825 98.6875C95.9334 98.8963 96.0238 99.114 96.0952 99.3381C96.1636 99.5632 96.3022 99.7605 96.4906 99.9012C96.679 100.042 96.9075 100.119 97.1427 100.121H97.3438V101.067Z" fill="#171615"/>
<path d="M92.1406 97.4141C91.5117 97.4141 90.897 97.6005 90.3741 97.9499C89.8512 98.2993 89.4436 98.7959 89.203 99.3769C88.9623 99.9579 88.8993 100.597 89.022 101.214C89.1447 101.831 89.4476 102.397 89.8922 102.842C90.3369 103.287 90.9035 103.59 91.5203 103.712C92.1371 103.835 92.7764 103.772 93.3574 103.531C93.9385 103.291 94.4351 102.883 94.7844 102.36C95.1338 101.837 95.3203 101.223 95.3203 100.594C95.3194 99.7507 94.9841 98.9425 94.388 98.3464C93.7919 97.7503 92.9836 97.415 92.1406 97.4141ZM92.1406 102.617C91.7404 102.617 91.3492 102.499 91.0165 102.276C90.6837 102.054 90.4244 101.738 90.2712 101.368C90.1181 100.998 90.078 100.592 90.1561 100.199C90.2341 99.8065 90.4269 99.4459 90.7098 99.163C90.9928 98.88 91.3534 98.6873 91.7459 98.6092C92.1384 98.5311 92.5452 98.5712 92.915 98.7243C93.2847 98.8775 93.6007 99.1368 93.8231 99.4696C94.0454 99.8023 94.1641 100.194 94.1641 100.594C94.1634 101.13 93.95 101.644 93.5707 102.024C93.1914 102.403 92.6771 102.617 92.1406 102.617Z" fill="#171615"/>
<path d="M114.688 74.5781H92.7188C92.4122 74.5784 92.1183 74.7003 91.9015 74.9171C91.6847 75.1339 91.5628 75.4278 91.5625 75.7344V80.9375H86.9375C86.6309 80.9378 86.337 81.0597 86.1202 81.2765C85.9035 81.4933 85.7816 81.7872 85.7812 82.0938V87.2969H81.1562C80.8497 87.2972 80.5558 87.4191 80.339 87.6359C80.1222 87.8526 80.0003 88.1466 80 88.4531V109.266C80.0003 109.572 80.1222 109.866 80.339 110.083C80.5558 110.3 80.8497 110.422 81.1562 110.422H103.125C103.432 110.422 103.725 110.3 103.942 110.083C104.159 109.866 104.281 109.572 104.281 109.266V104.062H108.906C109.213 104.062 109.507 103.94 109.724 103.724C109.94 103.507 110.062 103.213 110.062 102.906V97.7031H114.688C114.994 97.7028 115.288 97.5809 115.505 97.3641C115.722 97.1474 115.843 96.8534 115.844 96.5469V75.7344C115.843 75.4278 115.722 75.1339 115.505 74.9171C115.288 74.7003 114.994 74.5784 114.688 74.5781ZM114.688 75.7344V77.4688H92.7188V75.7344H114.688ZM108.906 82.0938V83.8281H86.9375V82.0938H108.906ZM103.125 88.4531L103.125 90.1875H81.1562V88.4531H103.125ZM81.1562 109.266V91.3438H103.125L103.126 109.266H81.1562ZM104.281 102.906V88.4531C104.281 88.1466 104.159 87.8526 103.942 87.6359C103.725 87.4191 103.432 87.2972 103.125 87.2969H86.9375V84.9844H108.906V102.906H104.281ZM110.062 96.5469V82.0938C110.062 81.7872 109.94 81.4933 109.724 81.2765C109.507 81.0597 109.213 80.9378 108.906 80.9375H92.7188V78.625H114.688V96.5469H110.062Z" fill="#D09172"/>
<line y1="-0.25" x2="25" y2="-0.25" transform="matrix(-4.37114e-08 -1 -1 4.37114e-08 98 39)" stroke="#D09172" stroke-width="0.5"/>
<circle cx="2" cy="2" r="2" transform="matrix(1 0 0 -1 96 18)" fill="url(#paint3_linear_4606_9)"/>
<defs>
<filter id="filter0_d_4606_9" x="35" y="28" width="138" height="138" filterUnits="userSpaceOnUse" color-interpolation-filters="sRGB">
<feFlood flood-opacity="0" result="BackgroundImageFix"/>
<feColorMatrix in="SourceAlpha" type="matrix" values="0 0 0 0 0 0 0 0 0 0 0 0 0 0 0 0 0 0 127 0" result="hardAlpha"/>
<feOffset dx="6" dy="4"/>
<feGaussianBlur stdDeviation="13"/>
<feComposite in2="hardAlpha" operator="out"/>
<feColorMatrix type="matrix" values="0 0 0 0 0 0 0 0 0 0 0 0 0 0 0 0 0 0 0.25 0"/>
<feBlend mode="normal" in2="BackgroundImageFix" result="effect1_dropShadow_4606_9"/>
<feBlend mode="normal" in="SourceGraphic" in2="effect1_dropShadow_4606_9" result="shape"/>
</filter>
<linearGradient id="paint0_linear_4606_9" x1="5" y1="175.009" x2="225.295" y2="97.5997" gradientUnits="userSpaceOnUse">
<stop stop-color="#EFBBA3"/>
<stop offset="1" stop-color="#7E3C24"/>
</linearGradient>
<linearGradient id="paint1_linear_4606_9" x1="1.40855e-07" y1="0.827272" x2="16.5814" y2="6.65378" gradientUnits="userSpaceOnUse">
<stop stop-color="#EFBBA3"/>
<stop offset="1" stop-color="#7E3C24"/>
</linearGradient>
<linearGradient id="paint2_linear_4606_9" x1="1.00611e-07" y1="0.590909" x2="11.8438" y2="4.7527" gradientUnits="userSpaceOnUse">
<stop stop-color="#EFBBA3"/>
<stop offset="1" stop-color="#7E3C24"/>
</linearGradient>
<linearGradient id="paint3_linear_4606_9" x1="4.02442e-08" y1="0.236364" x2="4.73754" y2="1.90108" gradientUnits="userSpaceOnUse">
<stop stop-color="#EFBBA3"/>
<stop offset="1" stop-color="#7E3C24"/>
</linearGradient>
</defs>
</svg>
