<svg width="191" height="186" viewBox="0 0 191 186" fill="none" xmlns="http://www.w3.org/2000/svg">
<g filter="url(#filter0_d_4606_3)">
<circle cx="98" cy="93" r="43" fill="white"/>
</g>
<path d="M151 92C151 84.9086 149.603 77.8867 146.889 71.3351C144.176 64.7835 140.198 58.8306 135.184 53.8162C130.169 48.8019 124.216 44.8243 117.665 42.1105C111.113 39.3968 104.091 38 97 38C89.9086 38 82.8867 39.3968 76.3351 42.1105C69.7835 44.8243 63.8306 48.8019 58.8162 53.8162C53.8019 58.8306 49.8243 64.7835 47.1105 71.3351C44.3968 77.8867 43 84.9086 43 92H44.8475C44.8475 85.1512 46.1965 78.3695 48.8174 72.0421C51.4383 65.7147 55.2798 59.9654 60.1226 55.1226C64.9654 50.2798 70.7147 46.4383 77.0421 43.8174C83.3695 41.1965 90.1512 39.8475 97 39.8475C103.849 39.8475 110.63 41.1965 116.958 43.8174C123.285 46.4383 129.035 50.2798 133.877 55.1226C138.72 59.9654 142.562 65.7147 145.183 72.0421C147.803 78.3695 149.152 85.1512 149.152 92H151Z" fill="#D09172"/>
<path d="M191 93C191 80.7871 188.594 68.6937 183.921 57.4104C179.247 46.1272 172.397 35.8749 163.761 27.2391C155.125 18.6032 144.873 11.7529 133.59 7.0792C122.306 2.40551 110.213 -5.33844e-07 98 0C85.7871 5.33844e-07 73.6937 2.40552 62.4104 7.07921C51.1272 11.7529 40.8749 18.6032 32.2391 27.2391C23.6032 35.8749 16.7529 46.1272 12.0792 57.4104C7.40551 68.6937 5 80.7871 5 93H8.18187C8.18187 81.2049 10.5051 69.5253 15.0189 58.6281C19.5326 47.7309 26.1486 37.8294 34.489 29.489C42.8294 21.1486 52.7308 14.5327 63.6281 10.0189C74.5253 5.50508 86.2049 3.18187 98 3.18187C109.795 3.18187 121.475 5.50508 132.372 10.0189C143.269 14.5326 153.171 21.1486 161.511 29.489C169.851 37.8294 176.467 47.7309 180.981 58.6281C185.495 69.5253 187.818 81.2049 187.818 93H191Z" fill="url(#paint0_linear_4606_3)"/>
<circle cx="7" cy="99" r="5.5" stroke="url(#paint1_linear_4606_3)" stroke-width="3"/>
<circle cx="151" cy="97" r="4.25" stroke="url(#paint2_linear_4606_3)" stroke-width="1.5"/>
<line x1="98.25" y1="147" x2="98.25" y2="172" stroke="#D09172" stroke-width="0.5"/>
<circle cx="98" cy="170" r="2" fill="url(#paint3_linear_4606_3)"/>
<path d="M95.0312 111.812C97.1207 111.812 98.8504 110.261 99.1401 108.25H105.473L104.705 109.018L105.545 109.857L107.326 108.076C107.442 107.96 107.5 107.808 107.5 107.656C107.5 107.504 107.442 107.352 107.326 107.236L105.545 105.455L104.705 106.295L105.473 107.062H99.1401C98.8504 105.052 97.1207 103.5 95.0312 103.5C92.7397 103.5 90.875 105.364 90.875 107.656C90.875 109.948 92.7397 111.812 95.0312 111.812ZM95.0312 104.688C96.6681 104.688 98 106.019 98 107.656C98 109.293 96.6681 110.625 95.0312 110.625C93.3944 110.625 92.0625 109.293 92.0625 107.656C92.0625 106.019 93.3944 104.688 95.0312 104.688Z" fill="#D09172"/>
<path d="M111.656 111.812C113.948 111.812 115.812 109.948 115.812 107.656C115.812 105.364 113.948 103.5 111.656 103.5C109.365 103.5 107.5 105.364 107.5 107.656C107.5 109.948 109.365 111.812 111.656 111.812ZM111.656 104.688C113.293 104.688 114.625 106.019 114.625 107.656C114.625 109.293 113.293 110.625 111.656 110.625C110.019 110.625 108.688 109.293 108.688 107.656C108.688 106.019 110.019 104.688 111.656 104.688Z" fill="#D09172"/>
<path d="M92.6562 89.8438C90.5668 89.8438 88.8371 91.3955 88.5474 93.4062H87.6094C83.5169 93.4062 80.1875 96.7357 80.1875 100.828C80.1875 104.921 83.5169 108.25 87.6094 108.25H88.8479L88.0802 109.018L88.9198 109.857L90.701 108.076C90.817 107.96 90.875 107.808 90.875 107.656C90.875 107.504 90.817 107.352 90.701 107.236L88.9198 105.455L88.0802 106.295L88.8479 107.062H87.6094C84.1715 107.062 81.375 104.266 81.375 100.828C81.375 97.3906 84.1715 94.5938 87.6094 94.5938H88.5474C88.8371 96.6045 90.5668 98.1562 92.6562 98.1562C94.9478 98.1562 96.8125 96.2918 96.8125 94C96.8125 91.7082 94.9478 89.8438 92.6562 89.8438ZM92.6562 96.9688C91.0194 96.9688 89.6875 95.6369 89.6875 94C89.6875 92.3631 91.0194 91.0312 92.6562 91.0312C94.2931 91.0312 95.625 92.3631 95.625 94C95.625 95.6369 94.2931 96.9688 92.6562 96.9688Z" fill="#171615"/>
<path d="M94.8573 78.1427L94.0177 78.9823L94.7854 79.75H88.4526C88.1629 77.7392 86.4332 76.1875 84.3438 76.1875C82.0522 76.1875 80.1875 78.052 80.1875 80.3438C80.1875 82.6355 82.0522 84.5 84.3438 84.5C86.4332 84.5 88.1629 82.9483 88.4526 80.9375H94.7854L94.0177 81.7052L94.8573 82.5448L96.6385 80.7635C96.7545 80.6476 96.8125 80.4957 96.8125 80.3438C96.8125 80.1918 96.7545 80.0399 96.6385 79.924L94.8573 78.1427ZM84.3438 83.3125C82.7069 83.3125 81.375 81.9806 81.375 80.3438C81.375 78.7069 82.7069 77.375 84.3438 77.375C85.9806 77.375 87.3125 78.7069 87.3125 80.3438C87.3125 81.9806 85.9806 83.3125 84.3438 83.3125Z" fill="#D09172"/>
<path d="M115.812 87.1719C115.812 83.0794 112.483 79.75 108.391 79.75H105.078C104.788 77.7392 103.058 76.1875 100.969 76.1875C98.6772 76.1875 96.8125 78.052 96.8125 80.3438C96.8125 82.6355 98.6772 84.5 100.969 84.5C103.058 84.5 104.788 82.9483 105.078 80.9375H108.391C111.828 80.9375 114.625 83.7343 114.625 87.1719C114.625 90.6094 111.828 93.4062 108.391 93.4062H98.8396L99.6073 92.6385L98.7677 91.799L96.9865 93.5802C96.8705 93.6962 96.8125 93.8481 96.8125 94C96.8125 94.1519 96.8705 94.3038 96.9865 94.4198L98.7677 96.201L99.6073 95.3615L98.8396 94.5938H108.391C112.483 94.5938 115.812 91.2643 115.812 87.1719ZM100.969 83.3125C99.3319 83.3125 98 81.9806 98 80.3438C98 78.7069 99.3319 77.375 100.969 77.375C102.606 77.375 103.938 78.7069 103.938 80.3438C103.938 81.9806 102.606 83.3125 100.969 83.3125Z" fill="#D09172"/>
<defs>
<filter id="filter0_d_4606_3" x="35" y="28" width="138" height="138" filterUnits="userSpaceOnUse" color-interpolation-filters="sRGB">
<feFlood flood-opacity="0" result="BackgroundImageFix"/>
<feColorMatrix in="SourceAlpha" type="matrix" values="0 0 0 0 0 0 0 0 0 0 0 0 0 0 0 0 0 0 127 0" result="hardAlpha"/>
<feOffset dx="6" dy="4"/>
<feGaussianBlur stdDeviation="13"/>
<feComposite in2="hardAlpha" operator="out"/>
<feColorMatrix type="matrix" values="0 0 0 0 0 0 0 0 0 0 0 0 0 0 0 0 0 0 0.25 0"/>
<feBlend mode="normal" in2="BackgroundImageFix" result="effect1_dropShadow_4606_3"/>
<feBlend mode="normal" in="SourceGraphic" in2="effect1_dropShadow_4606_3" result="shape"/>
</filter>
<linearGradient id="paint0_linear_4606_3" x1="5" y1="10.9909" x2="225.295" y2="88.4003" gradientUnits="userSpaceOnUse">
<stop stop-color="#EFBBA3"/>
<stop offset="1" stop-color="#7E3C24"/>
</linearGradient>
<linearGradient id="paint1_linear_4606_3" x1="1.40855e-07" y1="92.8273" x2="16.5814" y2="98.6538" gradientUnits="userSpaceOnUse">
<stop stop-color="#EFBBA3"/>
<stop offset="1" stop-color="#7E3C24"/>
</linearGradient>
<linearGradient id="paint2_linear_4606_3" x1="146" y1="92.5909" x2="157.844" y2="96.7527" gradientUnits="userSpaceOnUse">
<stop stop-color="#EFBBA3"/>
<stop offset="1" stop-color="#7E3C24"/>
</linearGradient>
<linearGradient id="paint3_linear_4606_3" x1="96" y1="168.236" x2="100.738" y2="169.901" gradientUnits="userSpaceOnUse">
<stop stop-color="#EFBBA3"/>
<stop offset="1" stop-color="#7E3C24"/>
</linearGradient>
</defs>
</svg>
