<svg width="191" height="186" viewBox="0 0 191 186" fill="none" xmlns="http://www.w3.org/2000/svg">
<g filter="url(#filter0_d_4606_11)">
<circle cx="98" cy="93" r="43" fill="white"/>
</g>
<path d="M151 92C151 84.9086 149.603 77.8867 146.889 71.3351C144.176 64.7835 140.198 58.8306 135.184 53.8162C130.169 48.8019 124.216 44.8243 117.665 42.1105C111.113 39.3968 104.091 38 97 38C89.9086 38 82.8867 39.3968 76.3351 42.1105C69.7835 44.8243 63.8306 48.8019 58.8162 53.8162C53.8019 58.8306 49.8243 64.7835 47.1105 71.3351C44.3968 77.8867 43 84.9086 43 92H44.8475C44.8475 85.1512 46.1965 78.3695 48.8174 72.0421C51.4383 65.7147 55.2798 59.9654 60.1226 55.1226C64.9654 50.2798 70.7147 46.4383 77.0421 43.8174C83.3695 41.1965 90.1512 39.8475 97 39.8475C103.849 39.8475 110.63 41.1965 116.958 43.8174C123.285 46.4383 129.035 50.2798 133.877 55.1226C138.72 59.9654 142.562 65.7147 145.183 72.0421C147.803 78.3695 149.152 85.1512 149.152 92H151Z" fill="#D09172"/>
<path d="M191 93C191 80.7871 188.594 68.6937 183.921 57.4104C179.247 46.1272 172.397 35.8749 163.761 27.2391C155.125 18.6032 144.873 11.7529 133.59 7.0792C122.306 2.40551 110.213 -5.33844e-07 98 0C85.7871 5.33844e-07 73.6937 2.40552 62.4104 7.07921C51.1272 11.7529 40.8749 18.6032 32.2391 27.2391C23.6032 35.8749 16.7529 46.1272 12.0792 57.4104C7.40551 68.6937 5 80.7871 5 93H8.18187C8.18187 81.2049 10.5051 69.5253 15.0189 58.6281C19.5326 47.7309 26.1486 37.8294 34.489 29.489C42.8294 21.1486 52.7308 14.5327 63.6281 10.0189C74.5253 5.50508 86.2049 3.18187 98 3.18187C109.795 3.18187 121.475 5.50508 132.372 10.0189C143.269 14.5326 153.171 21.1486 161.511 29.489C169.851 37.8294 176.467 47.7309 180.981 58.6281C185.495 69.5253 187.818 81.2049 187.818 93H191Z" fill="url(#paint0_linear_4606_11)"/>
<circle cx="7" cy="99" r="5.5" stroke="url(#paint1_linear_4606_11)" stroke-width="3"/>
<circle cx="151" cy="97" r="4.25" stroke="url(#paint2_linear_4606_11)" stroke-width="1.5"/>
<path d="M96.2283 92.6869L98.687 90.2279C98.7353 90.1797 98.7736 90.1224 98.7997 90.0594C98.8259 89.9964 98.8393 89.9289 98.8393 89.8606C98.8393 89.7924 98.8259 89.7249 98.7997 89.6619C98.7736 89.5989 98.7353 89.5416 98.687 89.4934L97.3772 88.1836C97.6464 87.6902 97.8623 87.1695 98.0211 86.6303H99.8725C100.01 86.6303 100.142 86.5756 100.24 86.4782C100.337 86.3807 100.392 86.2486 100.392 86.1108V82.6338C100.392 82.496 100.337 82.3639 100.24 82.2665C100.142 82.169 100.01 82.1143 99.8725 82.1143H98.0253C97.8663 81.5744 97.6498 81.0531 97.3793 80.5595L98.687 79.2515C98.7353 79.2033 98.7736 79.146 98.7998 79.083C98.8259 79.0199 98.8393 78.9524 98.8393 78.8841C98.8393 78.8159 98.8259 78.7483 98.7998 78.6853C98.7736 78.6222 98.7353 78.565 98.687 78.5168L96.2283 76.0577C96.1801 76.0095 96.1229 75.9712 96.0599 75.945C95.9968 75.9189 95.9293 75.9055 95.8611 75.9055C95.7929 75.9055 95.7253 75.9189 95.6623 75.945C95.5993 75.9712 95.542 76.0095 95.4938 76.0577L94.1858 77.3661C93.6922 77.0956 93.171 76.879 92.6311 76.7201V74.8723C92.6311 74.8041 92.6177 74.7365 92.5916 74.6735C92.5655 74.6104 92.5272 74.5531 92.479 74.5049C92.4307 74.4566 92.3735 74.4183 92.3104 74.3923C92.2474 74.3662 92.1798 74.3527 92.1115 74.3528H88.6342C88.566 74.3527 88.4984 74.3662 88.4354 74.3923C88.3723 74.4183 88.315 74.4566 88.2668 74.5049C88.2185 74.5531 88.1803 74.6104 88.1542 74.6735C88.1281 74.7365 88.1147 74.8041 88.1147 74.8723V76.7233C87.5757 76.8823 87.0551 77.0983 86.5618 77.3675L85.2522 76.0577C85.204 76.0095 85.1468 75.9711 85.0837 75.945C85.0207 75.9189 84.9531 75.9054 84.8849 75.9054C84.8166 75.9054 84.7491 75.9189 84.686 75.945C84.623 75.9711 84.5657 76.0095 84.5175 76.0577L82.0585 78.5168C82.0102 78.565 81.9719 78.6222 81.9457 78.6853C81.9196 78.7483 81.9062 78.8159 81.9062 78.8841C81.9062 78.9524 81.9196 79.0199 81.9457 79.083C81.9719 79.146 82.0102 79.2033 82.0585 79.2515L83.3677 80.561C83.0985 81.0545 82.8825 81.5751 82.7235 82.1143H80.873C80.8048 82.1142 80.7372 82.1277 80.6742 82.1538C80.6111 82.1798 80.5538 82.2181 80.5056 82.2664C80.4573 82.3146 80.4191 82.3719 80.393 82.435C80.3669 82.498 80.3535 82.5656 80.3535 82.6338V86.1108C80.3535 86.1791 80.3669 86.2466 80.393 86.3097C80.4191 86.3727 80.4573 86.43 80.5056 86.4783C80.5538 86.5265 80.6111 86.5648 80.6742 86.5909C80.7372 86.617 80.8048 86.6304 80.873 86.6303H82.7205C82.8795 87.1703 83.0962 87.6915 83.3668 88.1851L82.0585 89.4934C82.0102 89.5416 81.9719 89.5989 81.9458 89.6619C81.9196 89.7249 81.9062 89.7924 81.9062 89.8606C81.9062 89.9289 81.9196 89.9964 81.9458 90.0594C81.9719 90.1224 82.0102 90.1797 82.0585 90.2279L84.5169 92.6869C84.6144 92.7842 84.7465 92.8388 84.8843 92.8388C85.022 92.8388 85.1541 92.7842 85.2517 92.6869L86.5597 91.3786C87.0534 91.649 87.5747 91.8657 88.1147 92.0249V93.8726C88.1147 94.0104 88.1695 94.1425 88.2669 94.24C88.3643 94.3374 88.4965 94.3921 88.6342 94.3921H92.1115C92.2493 94.3921 92.3815 94.3374 92.4789 94.24C92.5763 94.1425 92.6311 94.0104 92.6311 93.8726V92.0213C93.1701 91.8623 93.6907 91.6463 94.184 91.3771L95.4938 92.6869C95.5913 92.7842 95.7234 92.8389 95.8611 92.8389C95.9988 92.8389 96.1309 92.7842 96.2283 92.6869ZM94.6368 90.3603C94.5543 90.2776 94.4463 90.2252 94.3303 90.2115C94.2143 90.1978 94.0971 90.2237 93.9976 90.2849C93.3769 90.6665 92.6995 90.9471 91.9907 91.1161C91.8773 91.1434 91.7763 91.2079 91.704 91.2995C91.6317 91.391 91.5923 91.5042 91.592 91.6208V93.3516H89.1538V91.6256C89.1536 91.5088 89.1141 91.3955 89.0417 91.304C88.9692 91.2124 88.8681 91.1479 88.7545 91.1209C88.0458 90.9514 87.3688 90.6697 86.7491 90.2864C86.6495 90.2249 86.5321 90.1989 86.4159 90.2125C86.2997 90.2261 86.1915 90.2785 86.1087 90.3612L84.8847 91.5843L83.1611 89.86L84.3842 88.6366C84.4668 88.5539 84.5192 88.4457 84.5327 88.3296C84.5463 88.2134 84.5203 88.0961 84.459 87.9966C84.0757 87.3765 83.7942 86.6991 83.6251 85.99C83.5981 85.8764 83.5336 85.7752 83.442 85.7028C83.3504 85.6303 83.2371 85.5909 83.1204 85.5907H81.3926V83.153H83.1231C83.2397 83.1529 83.3529 83.1134 83.4445 83.0411C83.536 82.9688 83.6006 82.8678 83.6277 82.7543C83.7966 82.0457 84.0772 81.3685 84.459 80.7481C84.5201 80.6484 84.5459 80.5312 84.5322 80.4151C84.5185 80.2991 84.4662 80.191 84.3836 80.1083L83.1611 78.884L84.8847 77.1603L86.109 78.3846C86.1916 78.4672 86.2997 78.5196 86.4157 78.5333C86.5317 78.547 86.6489 78.5212 86.7485 78.46C87.3691 78.0784 88.0464 77.7978 88.7551 77.6288C88.8685 77.6016 88.9695 77.537 89.0418 77.4455C89.1141 77.3539 89.1535 77.2408 89.1538 77.1241V75.3918H91.592V77.1194C91.5922 77.2361 91.6317 77.3494 91.7041 77.441C91.7766 77.5325 91.8777 77.597 91.9913 77.624C92.7004 77.7931 93.3778 78.0745 93.9979 78.4577C94.0974 78.5193 94.2147 78.5454 94.331 78.5318C94.4472 78.5182 94.5554 78.4657 94.638 78.3829L95.8611 77.1597L97.585 78.884L96.3619 80.1074C96.2793 80.1902 96.227 80.2984 96.2134 80.4146C96.1998 80.5308 96.2258 80.6482 96.2871 80.7478C96.6703 81.3677 96.9518 82.0451 97.1207 82.754C97.1477 82.8676 97.2122 82.9688 97.3038 83.0412C97.3954 83.1137 97.5086 83.1532 97.6254 83.1533H99.3529V85.5913H97.6221C97.5055 85.5915 97.3922 85.631 97.3007 85.7034C97.2092 85.7758 97.1446 85.8768 97.1175 85.9903C96.9485 86.699 96.6679 87.3763 96.2862 87.9969C96.225 88.0963 96.1992 88.2136 96.2128 88.3295C96.2265 88.4455 96.2789 88.5535 96.3616 88.636L97.585 89.8606L95.8611 91.5843L94.6368 90.3603Z" fill="#D09172"/>
<path d="M90.3728 79.875C89.4834 79.875 88.6138 80.1388 87.8743 80.6329C87.1347 81.1271 86.5582 81.8295 86.2178 82.6513C85.8774 83.4731 85.7884 84.3773 85.9619 85.2498C86.1354 86.1222 86.5638 86.9235 87.1927 87.5525C87.8217 88.1814 88.6231 88.6098 89.4955 88.7833C90.3679 88.9568 91.2721 88.8678 92.0939 88.5274C92.9157 88.187 93.6181 87.6105 94.1123 86.871C94.6064 86.1314 94.8702 85.2619 94.8702 84.3724C94.8689 83.18 94.3946 82.0369 93.5515 81.1937C92.7084 80.3506 91.5652 79.8763 90.3728 79.875ZM90.3728 87.8312C89.6889 87.8312 89.0203 87.6284 88.4516 87.2485C87.8829 86.8685 87.4396 86.3284 87.1779 85.6965C86.9161 85.0646 86.8476 84.3693 86.981 83.6985C87.1144 83.0277 87.4437 82.4115 87.9273 81.9278C88.4108 81.4441 89.027 81.1147 89.6978 80.9812C90.3686 80.8477 91.0639 80.9161 91.6959 81.1777C92.3278 81.4394 92.868 81.8826 93.248 82.4512C93.6281 83.0198 93.831 83.6884 93.8311 84.3724C93.83 85.2892 93.4653 86.1682 92.817 86.8165C92.1687 87.4648 91.2897 87.8296 90.3728 87.8307V87.8312Z" fill="#D09172"/>
<path d="M115.128 97.3695H113.281C113.122 96.8295 112.905 96.3083 112.635 95.8147L113.943 94.5064C113.991 94.4582 114.029 94.401 114.055 94.3379C114.082 94.2749 114.095 94.2074 114.095 94.1392C114.095 94.0709 114.082 94.0034 114.055 93.9404C114.029 93.8774 113.991 93.8201 113.943 93.7719L111.484 91.3135C111.436 91.2652 111.378 91.2269 111.315 91.2008C111.252 91.1747 111.185 91.1612 111.117 91.1612C111.048 91.1612 110.981 91.1747 110.918 91.2008C110.855 91.2269 110.797 91.2652 110.749 91.3135L109.441 92.6212C108.948 92.3508 108.427 92.1341 107.887 91.9749V90.1272C107.887 89.9894 107.832 89.8573 107.735 89.7598C107.637 89.6624 107.505 89.6077 107.367 89.6077H103.89C103.752 89.6077 103.62 89.6624 103.523 89.7598C103.425 89.8573 103.37 89.9894 103.37 90.1272V91.9785C102.831 92.1375 102.311 92.3534 101.817 92.6227L100.508 91.3135C100.459 91.2652 100.402 91.2269 100.339 91.2008C100.276 91.1747 100.209 91.1612 100.14 91.1612C100.072 91.1612 100.005 91.1747 99.9416 91.2008C99.8786 91.2269 99.8214 91.2652 99.7732 91.3135L97.3141 93.7719C97.2168 93.8694 97.1621 94.0014 97.1621 94.1392C97.1621 94.2769 97.2168 94.409 97.3141 94.5064L98.6242 95.8162C98.3549 96.3096 98.139 96.8303 97.9803 97.3695H96.1284C95.9906 97.3695 95.8585 97.4242 95.7611 97.5216C95.6636 97.6191 95.6089 97.7512 95.6089 97.889V101.366C95.6089 101.504 95.6636 101.636 95.7611 101.733C95.8585 101.831 95.9906 101.886 96.1284 101.886H97.9762C98.1351 102.425 98.3517 102.947 98.6222 103.44L97.3141 104.748C97.2168 104.846 97.1621 104.978 97.1621 105.116C97.1621 105.253 97.2168 105.386 97.3141 105.483L99.7732 107.942C99.8214 107.99 99.8786 108.029 99.9416 108.055C100.005 108.081 100.072 108.094 100.14 108.094C100.209 108.094 100.276 108.081 100.339 108.055C100.402 108.029 100.459 107.99 100.508 107.942L101.816 106.636C102.309 106.906 102.83 107.123 103.37 107.282V109.13C103.37 109.198 103.384 109.265 103.41 109.328C103.436 109.391 103.474 109.449 103.522 109.497C103.571 109.545 103.628 109.584 103.691 109.61C103.754 109.636 103.822 109.649 103.89 109.649H107.367C107.435 109.649 107.503 109.636 107.566 109.61C107.629 109.584 107.686 109.545 107.734 109.497C107.783 109.449 107.821 109.391 107.847 109.328C107.873 109.265 107.886 109.198 107.886 109.13V107.279C108.426 107.12 108.946 106.903 109.44 106.634L110.749 107.944C110.797 107.992 110.855 108.03 110.918 108.056C110.981 108.082 111.048 108.096 111.117 108.096C111.185 108.096 111.252 108.082 111.315 108.056C111.378 108.03 111.436 107.992 111.484 107.944L113.943 105.485C113.991 105.437 114.029 105.38 114.055 105.317C114.082 105.254 114.095 105.186 114.095 105.118C114.095 105.05 114.082 104.982 114.055 104.919C114.029 104.856 113.991 104.799 113.943 104.75L112.633 103.441C112.902 102.947 113.118 102.427 113.277 101.888H115.128C115.197 101.888 115.264 101.874 115.327 101.848C115.39 101.822 115.448 101.784 115.496 101.736C115.544 101.687 115.582 101.63 115.608 101.567C115.635 101.504 115.648 101.436 115.648 101.368V97.889C115.648 97.8208 115.635 97.7532 115.608 97.6901C115.582 97.6271 115.544 97.5698 115.496 97.5215C115.448 97.4733 115.39 97.435 115.327 97.4089C115.264 97.3828 115.197 97.3694 115.128 97.3695ZM114.609 100.847H112.878C112.762 100.847 112.649 100.886 112.557 100.959C112.465 101.031 112.401 101.132 112.374 101.245C112.205 101.954 111.924 102.631 111.542 103.252C111.481 103.352 111.456 103.469 111.469 103.585C111.483 103.701 111.535 103.809 111.618 103.892L112.842 105.116L111.119 106.84L109.894 105.615C109.812 105.533 109.704 105.481 109.588 105.467C109.472 105.453 109.354 105.479 109.255 105.54C108.634 105.922 107.957 106.202 107.248 106.371C107.134 106.398 107.033 106.463 106.961 106.555C106.889 106.646 106.849 106.759 106.849 106.876V108.606H104.409V106.879C104.409 106.762 104.37 106.649 104.297 106.557C104.225 106.466 104.124 106.401 104.01 106.374C103.301 106.205 102.624 105.924 102.004 105.541C101.904 105.479 101.787 105.453 101.671 105.467C101.554 105.48 101.446 105.533 101.364 105.615L100.14 106.839L98.4164 105.116L99.6396 103.892C99.7223 103.81 99.7747 103.701 99.7883 103.585C99.8019 103.469 99.7758 103.352 99.7144 103.252C99.3313 102.632 99.05 101.955 98.881 101.246C98.854 101.132 98.7895 101.031 98.698 100.959C98.6064 100.886 98.4931 100.847 98.3764 100.846H96.6479V98.4085H98.3784C98.4951 98.4083 98.6083 98.3688 98.6999 98.2964C98.7914 98.224 98.8559 98.123 98.8831 98.0095C99.0521 97.3008 99.3327 96.6235 99.7144 96.0029C99.7756 95.9035 99.8014 95.7862 99.7877 95.6703C99.774 95.5543 99.7216 95.4463 99.639 95.3638L98.4164 94.1392L100.14 92.4155L101.365 93.6398C101.447 93.7226 101.555 93.7751 101.671 93.7887C101.787 93.8024 101.904 93.7765 102.004 93.7152C102.625 93.3336 103.302 93.053 104.011 92.884C104.124 92.8567 104.225 92.7922 104.297 92.7006C104.37 92.6091 104.409 92.4959 104.409 92.3793V90.6485H106.848V92.376C106.848 92.4928 106.887 92.6061 106.96 92.6976C107.032 92.7892 107.133 92.8537 107.247 92.8807C107.956 93.05 108.633 93.3315 109.253 93.7146C109.353 93.7762 109.47 93.8023 109.586 93.7887C109.703 93.7752 109.811 93.7227 109.894 93.6398L111.117 92.4155L112.841 94.1395L111.617 95.3629C111.535 95.4456 111.482 95.5538 111.469 95.6699C111.455 95.7861 111.481 95.9034 111.542 96.0029C111.926 96.6229 112.207 97.3003 112.376 98.0092C112.403 98.1229 112.467 98.2241 112.559 98.2966C112.65 98.3691 112.764 98.4086 112.88 98.4088H114.608L114.609 100.847Z" fill="#D09172"/>
<path d="M105.628 95.1301C104.739 95.1301 103.869 95.3939 103.13 95.8881C102.39 96.3822 101.814 97.0846 101.473 97.9064C101.133 98.7282 101.044 99.6325 101.217 100.505C101.391 101.377 101.819 102.179 102.448 102.808C103.077 103.437 103.878 103.865 104.751 104.038C105.623 104.212 106.528 104.123 107.349 103.783C108.171 103.442 108.873 102.866 109.368 102.126C109.862 101.386 110.126 100.517 110.126 99.6275C110.124 98.4351 109.65 97.292 108.807 96.4488C107.964 95.6057 106.821 95.1315 105.628 95.1301ZM105.628 103.086C104.944 103.086 104.276 102.884 103.707 102.504C103.138 102.124 102.695 101.583 102.433 100.952C102.171 100.32 102.103 99.6242 102.236 98.9534C102.37 98.2826 102.699 97.6663 103.183 97.1827C103.666 96.699 104.283 96.3697 104.954 96.2362C105.624 96.1028 106.32 96.1713 106.952 96.433C107.584 96.6948 108.124 97.138 108.504 97.7068C108.884 98.2755 109.087 98.9441 109.087 99.6281C109.085 100.545 108.721 101.424 108.072 102.072C107.424 102.72 106.545 103.085 105.628 103.086V103.086Z" fill="#D09172"/>
<path d="M101.774 79.1918C104.793 80.0804 107.4 82.0082 109.133 84.6341C108.718 85.0105 108.455 85.5266 108.395 86.0843C108.335 86.6419 108.482 87.2022 108.808 87.6584C109.134 88.1147 109.617 88.4351 110.164 88.5586C110.711 88.6821 111.284 88.6002 111.775 88.3284C112.266 88.0567 112.639 87.614 112.825 87.0847C113.01 86.5553 112.995 85.9763 112.781 85.4577C112.567 84.9392 112.17 84.5173 111.666 84.2723C111.161 84.0274 110.584 83.9765 110.044 84.1294C108.177 81.2649 105.348 79.1607 102.068 78.1952C102.002 78.1744 101.933 78.167 101.864 78.1734C101.795 78.1797 101.728 78.1997 101.667 78.2322C101.606 78.2647 101.552 78.309 101.509 78.3625C101.465 78.4161 101.433 78.4777 101.413 78.544C101.394 78.6102 101.388 78.6797 101.395 78.7483C101.403 78.817 101.424 78.8834 101.458 78.9437C101.491 79.004 101.537 79.057 101.591 79.0996C101.646 79.1422 101.708 79.1735 101.774 79.1918H101.774ZM111.894 86.3218C111.894 86.5668 111.822 86.8062 111.686 87.0099C111.549 87.2136 111.356 87.3723 111.13 87.4661C110.903 87.5598 110.654 87.5844 110.414 87.5366C110.174 87.4888 109.953 87.3708 109.78 87.1976C109.607 87.0244 109.489 86.8037 109.441 86.5634C109.393 86.3232 109.418 86.0741 109.511 85.8478C109.605 85.6215 109.764 85.4281 109.968 85.292C110.171 85.1559 110.411 85.0832 110.656 85.0832C110.984 85.0836 111.299 85.2142 111.531 85.4464C111.763 85.6786 111.894 85.9934 111.894 86.3218Z" fill="#171615"/>
<path d="M94.2271 104.808C91.2091 103.919 88.6028 101.991 86.8693 99.3657C87.2852 98.9893 87.5481 98.4731 87.6081 97.9155C87.6681 97.3578 87.5209 96.7975 87.1947 96.3413C86.8685 95.8851 86.3859 95.5647 85.8388 95.4412C85.2917 95.3176 84.7182 95.3995 84.2276 95.6713C83.737 95.9431 83.3634 96.3858 83.1779 96.9151C82.9924 97.4444 83.0081 98.0235 83.2218 98.542C83.4355 99.0606 83.8324 99.4825 84.337 99.7274C84.8416 99.9723 85.4186 100.023 85.9582 99.8704C87.8256 102.735 90.6535 104.839 93.9335 105.805C93.9812 105.819 94.0307 105.826 94.0804 105.826C94.2052 105.825 94.3257 105.78 94.4199 105.698C94.5142 105.617 94.5758 105.504 94.5935 105.38C94.6113 105.257 94.584 105.131 94.5167 105.026C94.4493 104.921 94.3464 104.843 94.2268 104.808H94.2271ZM84.1069 97.6779C84.107 97.433 84.1798 97.1936 84.3159 96.99C84.4521 96.7864 84.6456 96.6277 84.8719 96.5341C85.0982 96.4404 85.3473 96.416 85.5875 96.4638C85.8277 96.5117 86.0483 96.6297 86.2215 96.8029C86.3946 96.9762 86.5125 97.1969 86.5603 97.4371C86.608 97.6774 86.5835 97.9264 86.4897 98.1526C86.3959 98.3789 86.2372 98.5723 86.0335 98.7084C85.8299 98.8445 85.5904 98.9171 85.3455 98.9171C85.017 98.9168 84.702 98.7861 84.4698 98.5538C84.2376 98.3214 84.1071 98.0064 84.1069 97.6779Z" fill="#171615"/>
<line x1="99.25" y1="147" x2="99.25" y2="172" stroke="#D09172" stroke-width="0.5"/>
<circle cx="99" cy="170" r="2" fill="url(#paint3_linear_4606_11)"/>
<defs>
<filter id="filter0_d_4606_11" x="35" y="28" width="138" height="138" filterUnits="userSpaceOnUse" color-interpolation-filters="sRGB">
<feFlood flood-opacity="0" result="BackgroundImageFix"/>
<feColorMatrix in="SourceAlpha" type="matrix" values="0 0 0 0 0 0 0 0 0 0 0 0 0 0 0 0 0 0 127 0" result="hardAlpha"/>
<feOffset dx="6" dy="4"/>
<feGaussianBlur stdDeviation="13"/>
<feComposite in2="hardAlpha" operator="out"/>
<feColorMatrix type="matrix" values="0 0 0 0 0 0 0 0 0 0 0 0 0 0 0 0 0 0 0.25 0"/>
<feBlend mode="normal" in2="BackgroundImageFix" result="effect1_dropShadow_4606_11"/>
<feBlend mode="normal" in="SourceGraphic" in2="effect1_dropShadow_4606_11" result="shape"/>
</filter>
<linearGradient id="paint0_linear_4606_11" x1="5" y1="10.9909" x2="225.295" y2="88.4003" gradientUnits="userSpaceOnUse">
<stop stop-color="#EFBBA3"/>
<stop offset="1" stop-color="#7E3C24"/>
</linearGradient>
<linearGradient id="paint1_linear_4606_11" x1="1.40855e-07" y1="92.8273" x2="16.5814" y2="98.6538" gradientUnits="userSpaceOnUse">
<stop stop-color="#EFBBA3"/>
<stop offset="1" stop-color="#7E3C24"/>
</linearGradient>
<linearGradient id="paint2_linear_4606_11" x1="146" y1="92.5909" x2="157.844" y2="96.7527" gradientUnits="userSpaceOnUse">
<stop stop-color="#EFBBA3"/>
<stop offset="1" stop-color="#7E3C24"/>
</linearGradient>
<linearGradient id="paint3_linear_4606_11" x1="97" y1="168.236" x2="101.738" y2="169.901" gradientUnits="userSpaceOnUse">
<stop stop-color="#EFBBA3"/>
<stop offset="1" stop-color="#7E3C24"/>
</linearGradient>
</defs>
</svg>
