<svg width="191" height="186" viewBox="0 0 191 186" fill="none" xmlns="http://www.w3.org/2000/svg">
<g filter="url(#filter0_d_4606_7)">
<circle cx="98" cy="93" r="43" fill="white"/>
</g>
<path d="M151 92C151 84.9086 149.603 77.8867 146.889 71.3351C144.176 64.7835 140.198 58.8306 135.184 53.8162C130.169 48.8019 124.216 44.8243 117.665 42.1105C111.113 39.3968 104.091 38 97 38C89.9086 38 82.8867 39.3968 76.3351 42.1105C69.7835 44.8243 63.8306 48.8019 58.8162 53.8162C53.8019 58.8306 49.8243 64.7835 47.1105 71.3351C44.3968 77.8867 43 84.9086 43 92H44.8475C44.8475 85.1512 46.1965 78.3695 48.8174 72.0421C51.4383 65.7147 55.2798 59.9654 60.1226 55.1226C64.9654 50.2798 70.7147 46.4383 77.0421 43.8174C83.3695 41.1965 90.1512 39.8475 97 39.8475C103.849 39.8475 110.63 41.1965 116.958 43.8174C123.285 46.4383 129.035 50.2798 133.877 55.1226C138.72 59.9654 142.562 65.7147 145.183 72.0421C147.803 78.3695 149.152 85.1512 149.152 92H151Z" fill="#D09172"/>
<path d="M191 93C191 80.7871 188.594 68.6937 183.921 57.4104C179.247 46.1272 172.397 35.8749 163.761 27.2391C155.125 18.6032 144.873 11.7529 133.59 7.0792C122.306 2.40551 110.213 -5.33844e-07 98 0C85.7871 5.33844e-07 73.6937 2.40552 62.4104 7.07921C51.1272 11.7529 40.8749 18.6032 32.2391 27.2391C23.6032 35.8749 16.7529 46.1272 12.0792 57.4104C7.40551 68.6937 5 80.7871 5 93H8.18187C8.18187 81.2049 10.5051 69.5253 15.0189 58.6281C19.5326 47.7309 26.1486 37.8294 34.489 29.489C42.8294 21.1486 52.7308 14.5327 63.6281 10.0189C74.5253 5.50508 86.2049 3.18187 98 3.18187C109.795 3.18187 121.475 5.50508 132.372 10.0189C143.269 14.5326 153.171 21.1486 161.511 29.489C169.851 37.8294 176.467 47.7309 180.981 58.6281C185.495 69.5253 187.818 81.2049 187.818 93H191Z" fill="url(#paint0_linear_4606_7)"/>
<circle cx="7" cy="99" r="5.5" stroke="url(#paint1_linear_4606_7)" stroke-width="3"/>
<circle cx="151" cy="97" r="4.25" stroke="url(#paint2_linear_4606_7)" stroke-width="1.5"/>
<path d="M111.938 78.082H81.0626C79.9145 78.082 78.9805 79.0161 78.9805 80.1641V101.695C78.9805 102.844 79.9145 103.778 81.0626 103.778H91.9031C91.7285 106.291 90.708 108.327 89.9418 111.01L89.8318 111.395H82.7891C82.3684 111.395 82.0273 111.736 82.0273 112.156C82.0273 112.577 82.3684 112.918 82.7891 112.918H110.211C110.632 112.918 110.973 112.577 110.973 112.156C110.973 111.736 110.632 111.395 110.211 111.395H103.168L103.058 111.01C102.292 108.327 101.272 106.291 101.097 103.778H111.938C113.086 103.778 114.02 102.844 114.02 101.695V80.1641C114.02 79.0161 113.086 78.082 111.938 78.082ZM81.0626 79.6055H111.938C112.245 79.6055 112.496 79.8561 112.496 80.1641V97.6838H80.5039V80.1641C80.5039 79.8561 80.7545 79.6055 81.0626 79.6055ZM101.584 111.395H91.4161C92.1779 108.742 93.2572 106.575 93.4287 103.778H99.5712C99.7428 106.575 100.823 108.745 101.584 111.395ZM111.938 102.254H81.0626C80.7545 102.254 80.5039 102.004 80.5039 101.695V99.2072H112.496V101.695C112.496 102.004 112.245 102.254 111.938 102.254Z" fill="#D09172"/>
<path d="M95.7383 108.348H97.2617C97.6823 108.348 98.0234 108.007 98.0234 107.586C98.0234 107.166 97.6823 106.824 97.2617 106.824H95.7383C95.3176 106.824 94.9766 107.166 94.9766 107.586C94.9766 108.007 95.3176 108.348 95.7383 108.348Z" fill="#D09172"/>
<path d="M85.8365 96.9428C86.0021 96.9428 86.168 96.889 86.3059 96.7813C86.3303 96.7623 88.7833 94.8786 92.1179 94.8786C92.4816 94.8786 92.8479 94.901 93.2066 94.9455C95.2164 95.194 96.5639 93.0555 96.6546 91.0494L106.894 84.3603C107.404 84.0254 107.754 83.5119 107.878 82.9143C108.135 81.6778 107.342 80.4691 106.105 80.2122C105.507 80.0883 104.897 80.2042 104.387 80.5391L94.2126 87.2195C92.8471 86.7723 91.3732 87.2548 90.1767 88.0397C88.293 89.2755 85.4637 95.1866 85.1473 95.8566C84.9087 96.3616 85.2801 96.9428 85.8365 96.9428ZM105.223 81.8126C105.575 81.5812 106.047 81.6803 106.277 82.0317C106.508 82.3828 106.41 82.856 106.06 83.0856L96.4178 89.3843C96.3309 89.1456 96.2211 88.9211 96.0872 88.717C95.9427 88.4967 95.7848 88.2985 95.6156 88.1206L105.223 81.8126ZM91.0123 89.3133C91.7515 88.8284 92.4772 88.5721 93.1109 88.5721C93.8654 88.5721 94.4077 88.9344 94.8135 89.5527C95.0052 89.845 95.1096 90.2316 95.1315 90.6524C95.1319 90.6732 95.1329 90.694 95.135 90.7148C95.1539 91.303 95.012 91.952 94.7136 92.5047C94.5616 92.7862 94.1405 93.4411 93.5148 93.4411C93.4752 93.4411 93.4345 93.4386 93.3939 93.4335C91.4336 93.1908 89.4616 93.5207 87.6372 94.2991C88.7718 92.1678 90.1745 89.863 91.0123 89.3133Z" fill="#171615"/>
<line x1="98.25" y1="147" x2="98.25" y2="172" stroke="#D09172" stroke-width="0.5"/>
<circle cx="98" cy="170" r="2" fill="url(#paint3_linear_4606_7)"/>
<defs>
<filter id="filter0_d_4606_7" x="35" y="28" width="138" height="138" filterUnits="userSpaceOnUse" color-interpolation-filters="sRGB">
<feFlood flood-opacity="0" result="BackgroundImageFix"/>
<feColorMatrix in="SourceAlpha" type="matrix" values="0 0 0 0 0 0 0 0 0 0 0 0 0 0 0 0 0 0 127 0" result="hardAlpha"/>
<feOffset dx="6" dy="4"/>
<feGaussianBlur stdDeviation="13"/>
<feComposite in2="hardAlpha" operator="out"/>
<feColorMatrix type="matrix" values="0 0 0 0 0 0 0 0 0 0 0 0 0 0 0 0 0 0 0.25 0"/>
<feBlend mode="normal" in2="BackgroundImageFix" result="effect1_dropShadow_4606_7"/>
<feBlend mode="normal" in="SourceGraphic" in2="effect1_dropShadow_4606_7" result="shape"/>
</filter>
<linearGradient id="paint0_linear_4606_7" x1="5" y1="10.9909" x2="225.295" y2="88.4003" gradientUnits="userSpaceOnUse">
<stop stop-color="#EFBBA3"/>
<stop offset="1" stop-color="#7E3C24"/>
</linearGradient>
<linearGradient id="paint1_linear_4606_7" x1="1.40855e-07" y1="92.8273" x2="16.5814" y2="98.6538" gradientUnits="userSpaceOnUse">
<stop stop-color="#EFBBA3"/>
<stop offset="1" stop-color="#7E3C24"/>
</linearGradient>
<linearGradient id="paint2_linear_4606_7" x1="146" y1="92.5909" x2="157.844" y2="96.7527" gradientUnits="userSpaceOnUse">
<stop stop-color="#EFBBA3"/>
<stop offset="1" stop-color="#7E3C24"/>
</linearGradient>
<linearGradient id="paint3_linear_4606_7" x1="96" y1="168.236" x2="100.738" y2="169.901" gradientUnits="userSpaceOnUse">
<stop stop-color="#EFBBA3"/>
<stop offset="1" stop-color="#7E3C24"/>
</linearGradient>
</defs>
</svg>
