<svg width="191" height="186" viewBox="0 0 191 186" fill="none" xmlns="http://www.w3.org/2000/svg">
<g filter="url(#filter0_d_4606_12)">
<circle cx="43" cy="43" r="43" transform="matrix(1 0 0 -1 55 136)" fill="white"/>
</g>
<path d="M151 94C151 101.091 149.603 108.113 146.889 114.665C144.176 121.216 140.198 127.169 135.184 132.184C130.169 137.198 124.216 141.176 117.665 143.889C111.113 146.603 104.091 148 97 148C89.9086 148 82.8867 146.603 76.3351 143.889C69.7835 141.176 63.8306 137.198 58.8162 132.184C53.8019 127.169 49.8243 121.216 47.1105 114.665C44.3968 108.113 43 101.091 43 94H44.8475C44.8475 100.849 46.1965 107.63 48.8174 113.958C51.4383 120.285 55.2798 126.035 60.1226 130.877C64.9654 135.72 70.7147 139.562 77.0421 142.183C83.3695 144.803 90.1512 146.152 97 146.152C103.849 146.152 110.63 144.803 116.958 142.183C123.285 139.562 129.035 135.72 133.877 130.877C138.72 126.035 142.562 120.285 145.183 113.958C147.803 107.63 149.152 100.849 149.152 94H151Z" fill="#D09172"/>
<path d="M191 93C191 105.213 188.594 117.306 183.921 128.59C179.247 139.873 172.397 150.125 163.761 158.761C155.125 167.397 144.873 174.247 133.59 178.921C122.306 183.594 110.213 186 98 186C85.7871 186 73.6937 183.594 62.4104 178.921C51.1272 174.247 40.8749 167.397 32.2391 158.761C23.6032 150.125 16.7529 139.873 12.0792 128.59C7.40551 117.306 5 105.213 5 93H8.18187C8.18187 104.795 10.5051 116.475 15.0189 127.372C19.5326 138.269 26.1486 148.171 34.489 156.511C42.8294 164.851 52.7308 171.467 63.6281 175.981C74.5253 180.495 86.2049 182.818 98 182.818C109.795 182.818 121.475 180.495 132.372 175.981C143.269 171.467 153.171 164.851 161.511 156.511C169.851 148.171 176.467 138.269 180.981 127.372C185.495 116.475 187.818 104.795 187.818 93H191Z" fill="url(#paint0_linear_4606_12)"/>
<circle cx="7" cy="7" r="5.5" transform="matrix(1 0 0 -1 0 94)" stroke="url(#paint1_linear_4606_12)" stroke-width="3"/>
<circle cx="5" cy="5" r="4.25" transform="matrix(1 0 0 -1 146 94)" stroke="url(#paint2_linear_4606_12)" stroke-width="1.5"/>
<path d="M99.4916 97.4108C98.7705 97.4108 98.0665 97.3078 97.3797 97.0846C96.4869 96.7927 95.6799 96.3463 94.9759 95.7453C94.3063 95.1615 93.7569 94.4576 93.3276 93.6677C92.9156 92.8608 92.6752 92.0194 92.5893 91.1266C92.5035 90.1994 92.6065 89.2894 92.8984 88.3966C93.1903 87.5037 93.6367 86.6968 94.2376 85.9928C94.8214 85.3232 95.5254 84.7737 96.3152 84.3445C97.1222 83.9324 97.9635 83.692 98.8563 83.6062C99.7835 83.5203 100.694 83.6233 101.586 83.9152C101.895 84.0182 102.084 84.3616 101.981 84.6707C101.878 84.9798 101.535 85.1686 101.226 85.0656C100.487 84.8252 99.732 84.7394 98.9765 84.8081C98.2382 84.8767 97.5343 85.0828 96.8646 85.4262C96.195 85.7696 95.6284 86.2332 95.1476 86.7826C94.6497 87.3664 94.272 88.036 94.0488 88.7571C93.8084 89.4955 93.7225 90.2509 93.7912 91.0064C93.8599 91.7447 94.0659 92.4487 94.4093 93.1183C94.7527 93.7879 95.1992 94.3545 95.7658 94.8353C96.3495 95.3332 97.0192 95.711 97.7403 95.9342C98.4786 96.1746 99.2341 96.2604 99.9896 96.1917C100.728 96.123 101.432 95.917 102.101 95.5736C102.771 95.2302 103.338 94.7666 103.818 94.2172C104.316 93.6334 104.694 92.9638 104.917 92.2426C105.158 91.5043 105.244 90.7489 105.175 89.9934C105.141 89.6672 105.381 89.3753 105.724 89.3409C106.051 89.3066 106.342 89.547 106.377 89.8904C106.463 90.8175 106.36 91.7275 106.068 92.6204C105.776 93.5132 105.329 94.3202 104.728 95.0242C104.145 95.6938 103.441 96.2604 102.651 96.6725C101.844 97.0846 100.985 97.3249 100.11 97.4108C99.9037 97.3936 99.6977 97.4108 99.4916 97.4108Z" fill="#D09172"/>
<path d="M99.4914 105C98.238 105 97.2593 104.004 96.418 103.128C95.8686 102.562 95.3363 102.012 94.8212 101.806C94.2718 101.583 93.4476 101.583 92.6578 101.583C91.4044 101.6 90.0995 101.6 89.241 100.759C88.3825 99.9005 88.3996 98.6128 88.4168 97.3422C88.4168 96.5524 88.434 95.7282 88.1936 95.1788C87.9876 94.6637 87.4381 94.1314 86.8715 93.582C85.9959 92.7235 85 91.762 85 90.4914C85 89.238 85.9959 88.2593 86.8715 87.418C87.4381 86.8686 87.9876 86.3363 88.1936 85.8212C88.4168 85.2718 88.4168 84.4476 88.4168 83.6578C88.3996 82.4044 88.3996 81.0995 89.241 80.241C90.0995 79.3825 91.3872 79.3996 92.6578 79.4168C93.4476 79.4168 94.2718 79.434 94.8212 79.1936C95.3363 78.9876 95.8686 78.4381 96.418 77.8715C97.2765 76.9959 98.238 76 99.5086 76C100.762 76 101.741 76.9959 102.582 77.8715C103.131 78.4381 103.664 78.9876 104.179 79.1936C104.728 79.4168 105.552 79.4168 106.342 79.4168C107.596 79.3996 108.901 79.3996 109.759 80.241C110.618 81.0995 110.6 82.3872 110.583 83.6578C110.583 84.4476 110.566 85.2718 110.806 85.8212C111.012 86.3363 111.562 86.8686 112.128 87.418C113.004 88.2765 114 89.238 114 90.5086C114 91.762 113.004 92.7407 112.128 93.582C111.562 94.1314 111.012 94.6637 110.806 95.1788C110.583 95.7282 110.583 96.5524 110.583 97.3422C110.6 98.5956 110.6 99.9005 109.759 100.759C108.901 101.618 107.613 101.6 106.342 101.583C105.552 101.583 104.728 101.566 104.179 101.806C103.664 102.012 103.131 102.562 102.582 103.128C101.724 103.987 100.745 105 99.4914 105ZM93.0699 100.364C93.8425 100.364 94.6152 100.398 95.2676 100.673C96.0059 100.982 96.6584 101.635 97.2593 102.27C97.9805 103.008 98.7359 103.781 99.4742 103.781C100.23 103.781 100.968 103.008 101.689 102.27C102.307 101.635 102.943 100.982 103.681 100.673C104.454 100.347 105.398 100.364 106.308 100.364C107.372 100.381 108.368 100.381 108.866 99.8834C109.364 99.3854 109.347 98.3896 109.347 97.325C109.347 96.415 109.33 95.4707 109.656 94.698C109.965 93.9597 110.618 93.3073 111.253 92.7063C111.991 91.9852 112.764 91.2297 112.764 90.4914C112.764 89.7359 111.991 88.9976 111.253 88.2765C110.618 87.6584 109.965 87.0231 109.656 86.2848C109.33 85.5121 109.347 84.5678 109.347 83.6578C109.364 82.5933 109.364 81.5974 108.866 81.0995C108.368 80.6015 107.372 80.6187 106.308 80.6187C105.398 80.6187 104.454 80.6359 103.681 80.3097C102.943 80.0006 102.29 79.3481 101.689 78.7128C100.968 77.9745 100.23 77.2019 99.4742 77.2019C98.7188 77.2019 97.9805 77.9745 97.2593 78.7128C96.6412 79.3481 96.0059 80.0006 95.2676 80.3097C94.495 80.6359 93.5506 80.6187 92.6406 80.6187C91.5761 80.6015 90.5802 80.6015 90.0823 81.0995C89.5844 81.5974 89.6015 82.5933 89.6015 83.6578C89.6015 84.5678 89.6187 85.5121 89.2925 86.2848C88.9834 87.0231 88.331 87.6755 87.6957 88.2765C86.9574 88.9976 86.1847 89.7359 86.1847 90.4914C86.1847 91.2469 86.9574 91.9852 87.6957 92.7063C88.331 93.3245 88.9834 93.9597 89.2925 94.698C89.6187 95.4707 89.6015 96.415 89.6015 97.325C89.5844 98.3896 89.5844 99.3854 90.0823 99.8834C90.5802 100.381 91.5761 100.364 92.6406 100.364H93.0699Z" fill="#D09172"/>
<path d="M105.844 111.542C105.724 111.542 105.587 111.508 105.484 111.456L99.5773 108.331L93.6708 111.456C93.4304 111.576 93.1385 111.576 92.9153 111.439C92.675 111.301 92.5376 111.044 92.5376 110.769V104.107C92.5376 103.781 92.8123 103.506 93.1385 103.506C93.4648 103.506 93.7395 103.781 93.7395 104.107V110.048L99.5773 106.958L105.415 110.048V104.107C105.415 103.781 105.69 103.506 106.016 103.506C106.342 103.506 106.617 103.781 106.617 104.107V110.769C106.617 111.044 106.48 111.284 106.239 111.439C106.119 111.508 105.982 111.542 105.844 111.542Z" fill="#D09172"/>
<path d="M99.3714 92.878L95.7657 89.2723C95.5254 89.0319 95.5254 88.6542 95.7657 88.431C96.0061 88.1906 96.3838 88.1906 96.6071 88.431L99.3542 91.1782L105.879 84.6708C106.119 84.4304 106.497 84.4304 106.737 84.6708C106.978 84.9111 106.978 85.2889 106.737 85.5121L99.3714 92.878Z" fill="#171615"/>
<line y1="-0.25" x2="25" y2="-0.25" transform="matrix(-4.37114e-08 -1 -1 4.37114e-08 98 39)" stroke="#D09172" stroke-width="0.5"/>
<circle cx="2" cy="2" r="2" transform="matrix(1 0 0 -1 96 18)" fill="url(#paint3_linear_4606_12)"/>
<defs>
<filter id="filter0_d_4606_12" x="35" y="28" width="138" height="138" filterUnits="userSpaceOnUse" color-interpolation-filters="sRGB">
<feFlood flood-opacity="0" result="BackgroundImageFix"/>
<feColorMatrix in="SourceAlpha" type="matrix" values="0 0 0 0 0 0 0 0 0 0 0 0 0 0 0 0 0 0 127 0" result="hardAlpha"/>
<feOffset dx="6" dy="4"/>
<feGaussianBlur stdDeviation="13"/>
<feComposite in2="hardAlpha" operator="out"/>
<feColorMatrix type="matrix" values="0 0 0 0 0 0 0 0 0 0 0 0 0 0 0 0 0 0 0.25 0"/>
<feBlend mode="normal" in2="BackgroundImageFix" result="effect1_dropShadow_4606_12"/>
<feBlend mode="normal" in="SourceGraphic" in2="effect1_dropShadow_4606_12" result="shape"/>
</filter>
<linearGradient id="paint0_linear_4606_12" x1="5" y1="175.009" x2="225.295" y2="97.5997" gradientUnits="userSpaceOnUse">
<stop stop-color="#EFBBA3"/>
<stop offset="1" stop-color="#7E3C24"/>
</linearGradient>
<linearGradient id="paint1_linear_4606_12" x1="1.40855e-07" y1="0.827272" x2="16.5814" y2="6.65378" gradientUnits="userSpaceOnUse">
<stop stop-color="#EFBBA3"/>
<stop offset="1" stop-color="#7E3C24"/>
</linearGradient>
<linearGradient id="paint2_linear_4606_12" x1="1.00611e-07" y1="0.590909" x2="11.8438" y2="4.7527" gradientUnits="userSpaceOnUse">
<stop stop-color="#EFBBA3"/>
<stop offset="1" stop-color="#7E3C24"/>
</linearGradient>
<linearGradient id="paint3_linear_4606_12" x1="4.02442e-08" y1="0.236364" x2="4.73754" y2="1.90108" gradientUnits="userSpaceOnUse">
<stop stop-color="#EFBBA3"/>
<stop offset="1" stop-color="#7E3C24"/>
</linearGradient>
</defs>
</svg>
