<svg width="62" height="48" viewBox="0 0 62 48" fill="none" xmlns="http://www.w3.org/2000/svg">
<circle opacity="0.5" cx="18" cy="18" r="18" fill="#EFBBA3"/>
<path d="M57.6075 15.9404H57.1116C56.7604 15.9404 56.4759 16.225 56.4759 16.5761C56.4759 16.9272 56.7604 17.2118 57.1116 17.2118H57.6075C59.0417 17.2118 60.2086 18.3786 60.2086 19.8128V44.1281C60.2086 45.5623 59.0417 46.7291 57.6075 46.7291H21.8724C20.4383 46.7292 19.2713 45.5623 19.2713 44.1281V24.634C19.2713 24.2828 18.9868 23.9983 18.6357 23.9983C18.2845 23.9983 18 24.2828 18 24.634V44.1281C18 46.2633 19.7372 48.0005 21.8724 48.0005H57.6074C59.7427 48.0005 61.4798 46.2633 61.4798 44.1281V19.8129C61.4799 17.6776 59.7428 15.9404 57.6075 15.9404Z" fill="#7E3C24"/>
<path d="M18.6357 22.5607C18.9868 22.5607 19.2713 22.2761 19.2713 21.925V14.8723C19.2713 13.4381 20.4383 12.2713 21.8724 12.2713H34.3311C34.7758 12.2713 35.2158 12.3863 35.6037 12.6039L42.9353 16.7167C43.5127 17.0407 44.1679 17.2119 44.8299 17.2119H47.7703C48.1214 17.2119 48.4059 16.9273 48.4059 16.5762C48.4059 16.225 48.1214 15.9405 47.7703 15.9405H44.8299C44.3853 15.9405 43.9452 15.8256 43.5572 15.6079L36.2257 11.4951C35.6484 11.1713 34.9933 11 34.3311 11H21.8724C19.7372 10.9999 18 12.7371 18 14.8723V21.925C18 22.276 18.2845 22.5607 18.6357 22.5607Z" fill="#7E3C24"/>
<path d="M35.6815 21.4651C36.9672 20.9233 38.3326 20.6487 39.7398 20.6487C41.1962 20.6487 42.6063 20.9428 43.9311 21.5228C44.0141 21.5592 44.1006 21.5764 44.1857 21.5764C44.4306 21.5764 44.6639 21.4341 44.7683 21.1955C44.9091 20.8739 44.7627 20.499 44.441 20.3582C42.9545 19.7074 41.3728 19.3774 39.7398 19.3774C38.1623 19.3774 36.6306 19.6857 35.1878 20.2935C34.8643 20.4298 34.7126 20.8026 34.8488 21.1261C34.9851 21.4495 35.3578 21.6013 35.6815 21.4651Z" fill="#7E3C24"/>
<path d="M33.2915 40.9152C35.2075 42.1778 37.4373 42.8451 39.7396 42.8451C46.2097 42.8451 51.4735 37.5814 51.4735 31.1111C51.4735 29.6263 51.1998 28.179 50.6597 26.8093C50.5309 26.4828 50.162 26.3226 49.8351 26.4511C49.5084 26.5799 49.3482 26.949 49.4768 27.2757C49.9581 28.4962 50.2021 29.7867 50.2021 31.1111C50.2021 36.8802 45.5086 41.5738 39.7395 41.5738C37.6866 41.5738 35.6987 40.9789 33.9909 39.8535C33.6978 39.6603 33.3036 39.7414 33.1103 40.0345C32.9171 40.3277 32.9983 40.722 33.2915 40.9152Z" fill="#7E3C24"/>
<path d="M31.1031 39.0538C31.2285 39.19 31.3995 39.2591 31.5711 39.2591C31.7249 39.2591 31.8792 39.2036 32.0013 39.0913C32.2597 38.8536 32.2764 38.4514 32.0387 38.193C30.2576 36.2575 29.2768 33.7424 29.2768 31.1111C29.2768 29.5586 29.6093 28.0638 30.2649 26.6683C30.4142 26.3506 30.2776 25.972 29.9598 25.8226C29.6422 25.6735 29.2635 25.81 29.1142 26.1277C28.3784 27.6935 28.0054 29.3702 28.0054 31.1111C28.0055 34.0622 29.1056 36.883 31.1031 39.0538Z" fill="#7E3C24"/>
<path d="M39.74 40.3024C44.8081 40.3024 48.9313 36.1793 48.9313 31.1112C48.9313 30.3573 48.8387 29.6059 48.6562 28.8776C48.5709 28.5369 48.2259 28.3304 47.885 28.4155C47.5445 28.5009 47.3376 28.8461 47.4229 29.1867C47.5802 29.8139 47.6599 30.4615 47.6599 31.1112C47.6599 35.4782 44.107 39.0311 39.74 39.0311C35.3731 39.0311 31.8202 35.4782 31.8202 31.1112C31.8202 26.7442 35.3731 23.1913 39.74 23.1913C40.5062 23.1913 41.2652 23.3016 41.996 23.5192C42.3327 23.6189 42.6864 23.4278 42.7867 23.0913C42.8869 22.7548 42.6953 22.4009 42.3588 22.3006C41.5102 22.0481 40.6291 21.9199 39.74 21.9199C34.672 21.9199 30.5488 26.0431 30.5488 31.1112C30.5488 36.1792 34.672 40.3024 39.74 40.3024Z" fill="#7E3C24"/>
<path d="M47.6891 20.176L39.1185 28.5793L37.9693 27.3501C37.5984 26.9536 36.9741 26.9326 36.5776 27.3034L34.611 29.1419C34.4188 29.3216 34.3083 29.5653 34.2994 29.8281C34.2906 30.091 34.3847 30.3417 34.5643 30.5336L37.3433 33.5063C37.4747 33.6468 37.6284 33.7734 37.8005 33.8823C37.9022 33.9468 38.0202 33.9809 38.1406 33.9809H39.9535C40.0741 33.9809 40.1922 33.9466 40.2941 33.882C40.4347 33.7927 40.564 33.6907 40.6779 33.579L44.2271 30.099C44.4778 29.8532 44.4818 29.4508 44.236 29.2001C43.9901 28.9493 43.5877 28.9456 43.337 29.1913L39.7878 32.6714C39.7745 32.6843 39.7607 32.6972 39.7463 32.7097H38.3468C38.3201 32.6867 38.2951 32.6628 38.2722 32.6382L35.6888 29.8748L37.2366 28.4279L38.3903 29.6619C38.573 29.8575 38.821 29.9682 39.0884 29.9741C39.3583 29.981 39.6083 29.8799 39.7991 29.6928L48.3746 21.2846L49.858 22.7976L45.279 27.2874C45.0283 27.5332 45.0244 27.9356 45.2702 28.1863C45.516 28.4371 45.9185 28.4408 46.1691 28.1951L50.9527 23.5047C51.1406 23.3206 51.2455 23.0743 51.248 22.8112C51.2505 22.5482 51.1507 22.3 50.9665 22.1121L49.0818 20.1898C48.8976 20.0019 48.6514 19.8971 48.3882 19.8945C48.1214 19.8938 47.877 19.9919 47.6891 20.176Z" fill="#7E3C24"/>
<path d="M30.187 24.1704C30.3592 24.4902 30.6784 24.6891 31.0408 24.7022C31.0536 24.7027 31.0664 24.7029 31.0791 24.7029C31.4291 24.7029 31.7479 24.528 31.9376 24.2296C32.272 23.7037 32.7155 23.2721 33.2933 22.9098C33.6 22.7175 33.7787 22.387 33.7714 22.0255C33.7641 21.6678 33.5746 21.3484 33.2646 21.1711C32.6597 20.8251 32.2178 20.4025 31.9137 19.8793C31.7322 19.5668 31.4072 19.3793 31.0446 19.3774C31.0428 19.3774 31.0411 19.3774 31.0392 19.3774C30.6788 19.3774 30.3544 19.5614 30.1707 19.8704C29.8627 20.3883 29.4463 20.801 28.8977 21.1323C28.5849 21.3212 28.3959 21.6654 28.4046 22.0304C28.4132 22.3958 28.6098 22.7173 28.9304 22.8908C29.4692 23.1824 29.8804 23.6008 30.187 24.1704ZM31.2634 20.5201C31.2634 20.5202 31.2633 20.5204 31.2632 20.5205C31.2632 20.5205 31.2633 20.5203 31.2634 20.5201ZM31.0382 20.8645C31.3646 21.3212 31.7814 21.7208 32.2834 22.0578C31.8203 22.3919 31.4229 22.7789 31.0959 23.2137C30.7739 22.7218 30.3737 22.3135 29.9003 21.9937C30.3472 21.6747 30.7281 21.2967 31.0382 20.8645Z" fill="#171615"/>
<path d="M51.9207 41.6947C52.6014 42.0629 53.1202 42.5908 53.5068 43.3087C53.6929 43.6545 54.038 43.8694 54.4297 43.8836C54.4436 43.8841 54.4573 43.8844 54.471 43.8844C54.8496 43.8844 55.1945 43.6951 55.3998 43.3723C55.8183 42.7142 56.3724 42.1744 57.0936 41.7222C57.4255 41.5143 57.6189 41.1566 57.611 40.7656C57.6032 40.3791 57.3985 40.0341 57.0635 39.8424C56.3053 39.4088 55.7505 38.8776 55.3676 38.2189C55.1715 37.8814 54.8203 37.6788 54.4283 37.6768C54.4264 37.6768 54.4245 37.6768 54.4226 37.6768C54.0329 37.6768 53.6824 37.8756 53.484 38.2093C53.1025 38.8509 52.565 39.3839 51.8866 39.7935C51.548 39.9979 51.3435 40.3702 51.3528 40.7653C51.3622 41.16 51.5745 41.5073 51.9207 41.6947ZM54.4218 39.1053C54.8586 39.7683 55.4499 40.3359 56.1848 40.7977C55.5017 41.2623 54.9312 41.8185 54.4835 42.4561C54.0481 41.7356 53.479 41.1559 52.7869 40.7277C53.4492 40.2867 53.9975 39.7425 54.4218 39.1053Z" fill="#171615"/>
<path d="M49.8656 16.0771C50.5463 16.4453 51.0651 16.9733 51.4517 17.6912C51.6379 18.037 51.9829 18.2518 52.3747 18.266C52.3885 18.2665 52.4022 18.2667 52.4159 18.2667C52.7945 18.2667 53.1394 18.0774 53.3447 17.7546C53.7632 17.0965 54.3174 16.5568 55.0385 16.1045C55.3704 15.8966 55.5638 15.5389 55.5559 15.148C55.5481 14.7615 55.3434 14.4164 55.0084 14.2248C54.2502 13.7911 53.6954 13.2599 53.3125 12.6012C53.1164 12.2638 52.7652 12.0611 52.3732 12.0591C51.9841 12.0561 51.6282 12.2563 51.4288 12.5916C51.0473 13.2332 50.5099 13.7663 49.8315 14.1758C49.4929 14.3802 49.2883 14.7527 49.2977 15.1477C49.3072 15.5425 49.5195 15.8898 49.8656 16.0771ZM52.3666 13.4877C52.8034 14.1506 53.3947 14.7183 54.1296 15.18C53.4466 15.6446 52.8759 16.201 52.4283 16.8384C51.9929 16.118 51.4239 15.5384 50.7317 15.1102C51.3941 14.669 51.9424 14.1249 52.3666 13.4877Z" fill="#171615"/>
</svg>
