<svg width="66" height="48" viewBox="0 0 66 48" fill="none" xmlns="http://www.w3.org/2000/svg">
<circle opacity="0.5" cx="18" cy="18" r="18" fill="#EFBBA3"/>
<path d="M40.3924 14.2533C42.0166 14.2533 43.5731 13.4348 44.7752 11.9491C45.873 10.5924 46.5025 8.88115 46.5025 7.25264C46.5025 3.97197 43.8761 1.49805 40.3924 1.49805C36.9087 1.49805 34.2822 3.96875 34.2822 7.25264C34.2822 8.88115 34.9117 10.5924 36.0096 11.9491C37.2116 13.4358 38.7682 14.2533 40.3924 14.2533ZM40.3924 3.27051C42.9061 3.27051 44.7301 4.94522 44.7301 7.25264C44.7301 10.153 42.3571 12.4809 40.3924 12.4809C37.9894 12.4809 36.0547 9.62022 36.0547 7.25264C36.0547 4.94951 37.8787 3.27051 40.3924 3.27051Z" fill="#7E3C24"/>
<path d="M33.1618 22.759L32.5398 31.631C32.5316 31.7471 32.5464 31.8637 32.5832 31.9741C32.6201 32.0845 32.6784 32.1865 32.7547 32.2744C32.831 32.3623 32.9238 32.4343 33.028 32.4863C33.1321 32.5382 33.2455 32.5692 33.3616 32.5774H33.4239C33.6481 32.5771 33.8639 32.492 34.0279 32.3392C34.1919 32.1863 34.2919 31.9771 34.308 31.7535L34.9299 22.889C34.9381 22.7729 34.9233 22.6563 34.8865 22.5459C34.8496 22.4355 34.7914 22.3335 34.715 22.2456C34.6387 22.1577 34.5459 22.0857 34.4417 22.0338C34.3376 21.9818 34.2243 21.9508 34.1082 21.9426C33.9921 21.9344 33.8755 21.9492 33.7651 21.9861C33.6547 22.0229 33.5526 22.0812 33.4648 22.1575C33.3769 22.2338 33.3049 22.3267 33.2529 22.4308C33.2009 22.5349 33.1699 22.6483 33.1618 22.7644V22.759Z" fill="#7E3C24"/>
<path d="M52.4121 32.5761C52.6525 32.5548 52.8747 32.439 53.03 32.2542C53.1852 32.0693 53.2608 31.8305 53.2403 31.5899C53.2403 31.5899 52.3036 24.8729 52.1661 22.6191C51.9115 18.5726 49.4397 15.3263 45.5779 14.7354C44.2201 14.5271 41.7537 14.3702 40.4646 14.3691C38.7049 14.3996 36.948 14.5212 35.2009 14.7333C33.3896 14.9813 31.7307 15.8806 30.5345 17.2631C29.2777 18.7144 28.7159 20.5695 28.6009 22.6234C28.472 24.8793 27.618 31.5996 27.618 31.5996C27.6036 31.7161 27.6125 31.8343 27.6442 31.9474C27.6759 32.0604 27.7297 32.166 27.8025 32.2581C27.8754 32.3501 27.9658 32.4268 28.0685 32.4837C28.1712 32.5405 28.2842 32.5764 28.4009 32.5892C28.5176 32.602 28.6356 32.5915 28.7482 32.5583C28.8608 32.5251 28.9657 32.4698 29.0568 32.3957C29.1479 32.3217 29.2233 32.2302 29.2787 32.1268C29.3342 32.0233 29.3685 31.9098 29.3797 31.793C29.3797 31.793 30.2466 24.9996 30.3702 22.7212C30.5463 19.4921 32.4574 16.8968 35.4426 16.4907C37.1088 16.2884 38.7843 16.1722 40.4624 16.1427C41.6634 16.1427 44.0471 16.2952 45.3082 16.4886C46.6948 16.6985 47.9626 17.3917 48.8875 18.4458C49.8715 19.5759 50.298 21.0938 50.3914 22.7266C50.5279 25.0082 51.4796 31.8026 51.4796 31.8026C51.5141 32.023 51.6279 32.2233 51.7996 32.3657C51.9713 32.5081 52.1891 32.5829 52.4121 32.5761Z" fill="#7E3C24"/>
<path d="M46.6506 21.9375C46.5339 21.9455 46.42 21.9766 46.3154 22.0288C46.2108 22.0811 46.1175 22.1535 46.041 22.242C45.9645 22.3305 45.9063 22.4332 45.8697 22.5443C45.8331 22.6554 45.8189 22.7726 45.8278 22.8893L46.4508 31.7601C46.4663 31.9839 46.566 32.1934 46.7299 32.3465C46.8938 32.4996 47.1096 32.5849 47.3338 32.5852H47.3972C47.6316 32.5684 47.8497 32.4593 48.0038 32.2819C48.1578 32.1045 48.2352 31.8732 48.219 31.6388L47.5959 22.7668C47.5884 22.6502 47.558 22.5363 47.5064 22.4315C47.4548 22.3267 47.3831 22.2331 47.2953 22.1561C47.2075 22.0791 47.1053 22.0201 46.9947 21.9826C46.8841 21.9451 46.7672 21.9298 46.6506 21.9375Z" fill="#7E3C24"/>
<path d="M46.0474 40.6009L50.3099 36.4458C50.4282 36.3304 50.5119 36.1842 50.5515 36.0237C50.5911 35.8632 50.5851 35.6948 50.534 35.5376C50.4829 35.3803 50.3889 35.2405 50.2625 35.1339C50.1362 35.0273 49.9825 34.9582 49.8189 34.9344L43.929 34.075L41.295 28.7415C41.2219 28.5931 41.1087 28.4681 40.9682 28.3808C40.8277 28.2934 40.6655 28.2471 40.5001 28.2471C40.3346 28.2471 40.1725 28.2934 40.032 28.3808C39.8915 28.4681 39.7783 28.5931 39.7052 28.7415L37.0712 34.0782L31.1812 34.9376C31.0177 34.9614 30.864 35.0306 30.7376 35.1372C30.6113 35.2438 30.5173 35.3836 30.4662 35.5408C30.4151 35.698 30.4091 35.8664 30.4487 36.0269C30.4883 36.1874 30.572 36.3336 30.6903 36.449L34.9528 40.6041L33.9474 46.4661C33.9189 46.6296 33.9369 46.7977 33.9993 46.9514C34.0617 47.1051 34.1659 47.2383 34.3003 47.3356C34.4346 47.433 34.5935 47.4907 34.759 47.5022C34.9245 47.5137 35.0899 47.4786 35.2364 47.4007L40.5001 44.6313L45.7638 47.4007C45.8911 47.4673 46.0326 47.5023 46.1763 47.5027C46.3053 47.5025 46.4328 47.4742 46.5497 47.4197C46.6667 47.3652 46.7704 47.2858 46.8535 47.1871C46.9367 47.0884 46.9973 46.9728 47.0312 46.8483C47.065 46.7237 47.0713 46.5933 47.0496 46.4661L46.0474 40.6009ZM40.0876 42.846C39.0585 43.3702 35.997 44.9944 35.997 44.9944L36.7779 40.4387C36.8022 40.2971 36.7917 40.1518 36.7474 40.0152C36.703 39.8786 36.6261 39.7548 36.5233 39.6545L33.2137 36.4318L37.7877 35.7669C37.9298 35.7462 38.0647 35.6912 38.1809 35.6068C38.2971 35.5225 38.3911 35.4111 38.4548 35.2824L40.4958 31.137L42.5368 35.2824C42.6005 35.4111 42.6945 35.5225 42.8107 35.6068C42.9269 35.6912 43.0618 35.7462 43.2039 35.7669L47.7779 36.4318L44.4683 39.6545C44.3655 39.7548 44.2886 39.8786 44.2442 40.0152C44.1999 40.1518 44.1894 40.2971 44.2137 40.4387L44.9946 44.9944C44.9946 44.9944 41.9331 43.3681 40.904 42.846C40.7786 42.7783 40.6383 42.7429 40.4958 42.7429C40.3533 42.7429 40.213 42.7783 40.0876 42.846Z" fill="#171615"/>
<path d="M64.8451 37.6285L60.5386 37.0022L58.6125 33.1007C58.5395 32.9522 58.4264 32.8272 58.286 32.7397C58.1456 32.6523 57.9835 32.606 57.8181 32.606C57.6527 32.606 57.4906 32.6523 57.3502 32.7397C57.2098 32.8272 57.0967 32.9522 57.0237 33.1007L55.0977 37.0022L50.7911 37.6285C50.6275 37.6523 50.4739 37.7215 50.3475 37.8281C50.2212 37.9346 50.1271 38.0745 50.0761 38.2317C50.025 38.3889 50.0189 38.5573 50.0585 38.7178C50.0981 38.8783 50.1818 39.0245 50.3002 39.1399L53.4154 42.1778L52.6796 46.4661C52.6511 46.6295 52.6691 46.7977 52.7315 46.9514C52.7939 47.1051 52.8982 47.2382 53.0325 47.3356C53.1668 47.433 53.3257 47.4907 53.4912 47.5022C53.6567 47.5137 53.8222 47.4785 53.9686 47.4007L57.8197 45.3758L61.6719 47.4007C61.7992 47.4673 61.9407 47.5023 62.0844 47.5027C62.2134 47.5025 62.3409 47.4742 62.4578 47.4197C62.5748 47.3652 62.6785 47.2858 62.7616 47.1871C62.8448 47.0884 62.9054 46.9728 62.9393 46.8482C62.9731 46.7237 62.9794 46.5933 62.9577 46.4661L62.2219 42.1778L65.3371 39.1399C65.4555 39.0245 65.5392 38.8783 65.5788 38.7178C65.6184 38.5573 65.6123 38.3889 65.5612 38.2317C65.5102 38.0745 65.4161 37.9346 65.2898 37.8281C65.1634 37.7215 65.0098 37.6523 64.8462 37.6285H64.8451ZM57.4061 43.5904C56.7305 43.9299 54.7303 44.9966 54.7303 44.9966L55.2416 42.0178C55.2659 41.8762 55.2554 41.7309 55.211 41.5943C55.1667 41.4576 55.0898 41.3339 54.987 41.2336L52.8225 39.1238L55.8131 38.6941C55.9554 38.6735 56.0905 38.6185 56.2067 38.5339C56.323 38.4493 56.4168 38.3376 56.4802 38.2086L57.8176 35.4994L59.155 38.2086C59.2187 38.3376 59.3128 38.4491 59.4292 38.5337C59.5456 38.6183 59.6808 38.6733 59.8231 38.6941L62.8127 39.1238L60.6492 41.2336C60.5463 41.3338 60.4693 41.4575 60.4249 41.5942C60.3805 41.7308 60.3702 41.8762 60.3946 42.0178L60.9102 44.9966C60.9102 44.9966 58.9111 43.9299 58.2354 43.5904C58.108 43.5218 57.9655 43.4858 57.8208 43.4858C57.6761 43.4858 57.5336 43.5218 57.4061 43.5904Z" fill="#7E3C24"/>
<path d="M30.2089 37.6285L25.9023 37.0022L23.9763 33.1007C23.9033 32.9522 23.7902 32.8272 23.6498 32.7397C23.5094 32.6523 23.3473 32.606 23.1819 32.606C23.0165 32.606 22.8544 32.6523 22.714 32.7397C22.5736 32.8272 22.4605 32.9522 22.3875 33.1007L20.4614 37.0022L16.1549 37.6285C15.9913 37.6523 15.8376 37.7215 15.7113 37.8281C15.5849 37.9346 15.4909 38.0745 15.4398 38.2317C15.3888 38.3889 15.3827 38.5573 15.4223 38.7178C15.4619 38.8783 15.5456 39.0245 15.664 39.1399L18.7792 42.1778L18.0487 46.4661C18.0203 46.6295 18.0383 46.7977 18.1006 46.9514C18.163 47.1051 18.2673 47.2382 18.4016 47.3356C18.5359 47.433 18.6949 47.4907 18.8604 47.5022C19.0259 47.5137 19.1913 47.4785 19.3378 47.4007L23.1899 45.3758L27.041 47.4007C27.1683 47.4673 27.3098 47.5023 27.4535 47.5027C27.5826 47.5025 27.71 47.4742 27.827 47.4197C27.944 47.3652 28.0476 47.2858 28.1308 47.1871C28.2139 47.0884 28.2745 46.9728 28.3084 46.8482C28.3423 46.7237 28.3486 46.5933 28.3268 46.4661L27.591 42.1778L30.7062 39.1399C30.8246 39.0245 30.9083 38.8783 30.9479 38.7178C30.9875 38.5573 30.9814 38.3889 30.9304 38.2317C30.8793 38.0745 30.7853 37.9346 30.6589 37.8281C30.5326 37.7215 30.3789 37.6523 30.2153 37.6285H30.2089ZM22.7753 43.5904L20.0951 44.9966L20.6054 42.0178C20.6298 41.8762 20.6194 41.7308 20.5751 41.5942C20.5307 41.4575 20.4537 41.3338 20.3508 41.2336L18.1873 39.1238L21.1768 38.6941C21.3192 38.6733 21.4544 38.6183 21.5708 38.5337C21.6872 38.4491 21.7813 38.3376 21.845 38.2086L23.1824 35.4994L24.5198 38.2086C24.5831 38.3376 24.677 38.4493 24.7932 38.5339C24.9095 38.6185 25.0446 38.6735 25.1869 38.6941L28.1775 39.1238L26.013 41.2336C25.9102 41.3339 25.8333 41.4576 25.7889 41.5943C25.7446 41.7309 25.7341 41.8762 25.7584 42.0178L26.2697 44.9966L23.5938 43.5904C23.4706 43.515 23.329 43.4751 23.1846 43.4751C23.0401 43.4751 22.8985 43.515 22.7753 43.5904Z" fill="#7E3C24"/>
</svg>
