<svg width="18" height="21" viewBox="0 0 18 21" fill="none" xmlns="http://www.w3.org/2000/svg">
<path fill-rule="evenodd" clip-rule="evenodd" d="M3.75635 8.75C3.75635 7.49022 4.25679 6.28204 5.14759 5.39124C6.03839 4.50045 7.24657 4 8.50635 4C9.76613 4 10.9743 4.50045 11.8651 5.39124C12.7559 6.28204 13.2563 7.49022 13.2563 8.75C13.2563 10.0098 12.7559 11.218 11.8651 12.1088C10.9743 12.9996 9.76613 13.5 8.50635 13.5C7.24657 13.5 6.03839 12.9996 5.14759 12.1088C4.25679 11.218 3.75635 10.0098 3.75635 8.75ZM8.50635 5.5C7.64439 5.5 6.81774 5.84241 6.20825 6.4519C5.59876 7.0614 5.25635 7.88805 5.25635 8.75C5.25635 9.61195 5.59876 10.4386 6.20825 11.0481C6.81774 11.6576 7.64439 12 8.50635 12C9.3683 12 10.195 11.6576 10.8044 11.0481C11.4139 10.4386 11.7563 9.61195 11.7563 8.75C11.7563 7.88805 11.4139 7.0614 10.8044 6.4519C10.195 5.84241 9.3683 5.5 8.50635 5.5Z" fill="white"/>
<path fill-rule="evenodd" clip-rule="evenodd" d="M0.0303253 7.607C0.201701 5.53397 1.14614 3.60113 2.67623 2.192C4.20631 0.782876 6.21023 0.000455781 8.29033 0H8.72233C10.8024 0.000455781 12.8063 0.782876 14.3364 2.192C15.8665 3.60113 16.8109 5.53397 16.9823 7.607C17.173 9.91633 16.4595 12.2095 14.9923 14.003L10.1993 19.864C9.99421 20.1148 9.73591 20.317 9.44312 20.4557C9.15033 20.5945 8.83035 20.6665 8.50633 20.6665C8.1823 20.6665 7.86233 20.5945 7.56953 20.4557C7.27674 20.317 7.01845 20.1148 6.81333 19.864L2.02033 14.003C0.55316 12.2095 -0.160307 9.91633 0.0303253 7.607ZM8.29033 1.5C6.58694 1.50072 4.94605 2.14165 3.69313 3.29565C2.44022 4.44965 1.66681 6.03242 1.52633 7.73C1.36761 9.6519 1.96133 11.5603 3.18233 13.053L7.97533 18.915C8.03976 18.9939 8.12092 19.0574 8.21292 19.101C8.30493 19.1447 8.40549 19.1673 8.50733 19.1673C8.60916 19.1673 8.70972 19.1447 8.80173 19.101C8.89374 19.0574 8.97489 18.9939 9.03933 18.915L13.8323 13.053C15.0526 11.56 15.6456 9.65163 15.4863 7.73C15.3458 6.03225 14.5723 4.44934 13.3191 3.29531C12.066 2.14128 10.4249 1.50047 8.72133 1.5H8.29033Z" fill="white"/>
</svg>
