<svg width="18" height="20" viewBox="0 0 18 20" fill="none" xmlns="http://www.w3.org/2000/svg">
<path d="M4.40202 1.04734C5.38698 0.712745 6.35721 1.16773 6.91499 1.89475L8.28714 3.68375C9.04844 4.67654 8.98143 6.02667 8.30521 6.99832C7.90561 7.57188 7.51671 8.21416 7.32308 8.75206C7.31063 8.79011 7.31243 8.83139 7.32816 8.8682C7.87035 10.2536 9.11767 11.4851 10.1825 12.3354C10.2356 12.3753 10.2992 12.3988 10.3656 12.4029C10.4319 12.407 10.498 12.3916 10.5556 12.3586L12.3895 11.3725C12.8835 11.1067 13.4497 11.0063 14.0049 11.0857C14.5602 11.1652 15.0754 11.4205 15.475 11.8141L17.2838 13.5963C17.7742 14.0797 18.114 14.7983 17.9606 15.582C17.8237 16.2821 17.4973 17.3167 16.6949 18.1176C15.8622 18.9484 14.5982 19.4468 12.7689 19.1896C10.7248 18.9015 8.59554 17.6012 6.68682 15.7813C4.7667 13.9498 3.01168 11.538 1.72426 8.91843C0.507905 6.44554 0.598972 4.60498 1.39304 3.27808C2.15894 1.99786 3.48675 1.3578 4.40202 1.04734ZM5.9226 2.65546C5.61178 2.2505 5.16895 2.10626 4.80331 2.23025C3.99036 2.50621 3.00458 3.01868 2.46594 3.91949C1.95537 4.77314 1.75202 6.14243 2.84514 8.36717C4.0727 10.8639 5.74266 13.154 7.54909 14.8766C9.36681 16.6102 11.2655 17.7156 12.9426 17.9518C14.437 18.1621 15.292 17.7507 15.8114 17.233C16.3605 16.6845 16.618 15.9316 16.7335 15.3421C16.7863 15.0722 16.6801 14.7566 16.406 14.4866L14.5974 12.7049C14.3881 12.4987 14.1182 12.365 13.8274 12.3233C13.5366 12.2816 13.24 12.3342 12.9812 12.4733L11.1473 13.4595C10.5992 13.7541 9.91097 13.7183 9.40237 13.3123C8.29427 12.4277 6.82925 11.0257 6.16332 9.32355C6.03735 9.00476 6.03137 8.65108 6.14651 8.32822C6.39801 7.63097 6.86414 6.87959 7.27841 6.28436C7.68317 5.70319 7.68536 4.95422 7.29475 4.44447L5.9226 2.65546Z" fill="white"/>
</svg>
