<svg width="54" height="54" viewBox="0 0 54 54" fill="none" xmlns="http://www.w3.org/2000/svg">
<circle cx="27" cy="27" r="16" fill="url(#paint0_linear_11_15623)"/>
<circle cx="27" cy="27" r="21.5" stroke="white" stroke-opacity="0.04" stroke-width="11"/>
<path d="M31.3125 25.8882L24.8747 22.1687C24.6907 22.0598 24.4811 22.0016 24.2673 22C23.9312 22 23.6089 22.1335 23.3712 22.3712C23.1335 22.6089 23 22.9312 23 23.2673V31.2498C23 31.4729 23.0598 31.6919 23.1732 31.884C23.2865 32.0761 23.4492 32.2343 23.6444 32.3423C23.8396 32.4502 24.0601 32.5039 24.2831 32.4977C24.506 32.4915 24.7233 32.4257 24.9122 32.3072L31.3575 28.2353C31.5579 28.1099 31.7224 27.9347 31.8349 27.7268C31.9475 27.5189 32.0043 27.2854 31.9997 27.049C31.9952 26.8126 31.9295 26.5814 31.8091 26.378C31.6886 26.1746 31.5176 26.0058 31.3125 25.8882Z" fill="#171615"/>
<defs>
<linearGradient id="paint0_linear_11_15623" x1="11" y1="11" x2="46.3263" y2="38.7684" gradientUnits="userSpaceOnUse">
<stop stop-color="#F4E07A"/>
<stop offset="1" stop-color="#C1963C"/>
</linearGradient>
</defs>
</svg>
