<svg width="30" height="30" viewBox="0 0 30 30" fill="none" xmlns="http://www.w3.org/2000/svg">
<circle cx="15" cy="15" r="15" fill="url(#paint0_linear_13_24006)"/>
<path d="M22.1968 15.5303C22.4897 15.2374 22.4897 14.7626 22.1968 14.4697L17.4239 9.6967C17.131 9.40381 16.6561 9.40381 16.3632 9.6967C16.0703 9.98959 16.0703 10.4645 16.3632 10.7574L20.6058 15L16.3632 19.2426C16.0703 19.5355 16.0703 20.0104 16.3632 20.3033C16.6561 20.5962 17.131 20.5962 17.4239 20.3033L22.1968 15.5303ZM8.33317 14.25C7.91896 14.25 7.58317 14.5858 7.58317 15C7.58317 15.4142 7.91896 15.75 8.33317 15.75L8.33317 14.25ZM21.6665 14.25L8.33317 14.25L8.33317 15.75L21.6665 15.75L21.6665 14.25Z" fill="#171615"/>
<defs>
<linearGradient id="paint0_linear_13_24006" x1="0" y1="0" x2="33.1184" y2="26.0329" gradientUnits="userSpaceOnUse">
<stop stop-color="#F4E07A"/>
<stop offset="1" stop-color="#C1963C"/>
</linearGradient>
</defs>
</svg>
