<svg width="23" height="13" viewBox="0 0 23 13" fill="none" xmlns="http://www.w3.org/2000/svg">
<path d="M22.5303 7.03033C22.8232 6.73744 22.8232 6.26256 22.5303 5.96967L17.7574 1.1967C17.4645 0.903805 16.9896 0.903805 16.6967 1.1967C16.4038 1.48959 16.4038 1.96447 16.6967 2.25736L20.9393 6.5L16.6967 10.7426C16.4038 11.0355 16.4038 11.5104 16.6967 11.8033C16.9896 12.0962 17.4645 12.0962 17.7574 11.8033L22.5303 7.03033ZM1 5.75C0.585787 5.75 0.25 6.08578 0.25 6.5C0.25 6.91421 0.585787 7.25 1 7.25L1 5.75ZM22 5.75L1 5.75L1 7.25L22 7.25L22 5.75Z" fill="#171615"/>
</svg>
