<svg width="19" height="19" viewBox="0 0 19 19" fill="none" xmlns="http://www.w3.org/2000/svg">
<path d="M14.3242 7.55078C14.458 7.55078 14.5664 7.65921 14.5664 7.79297C14.5664 7.92673 14.458 8.03516 14.3242 8.03516C14.1905 8.03516 14.082 7.92673 14.082 7.79297C14.082 7.65921 14.1905 7.55078 14.3242 7.55078Z" fill="#D09172" stroke="#D09172"/>
<path d="M14.3242 0.5C14.458 0.5 14.5664 0.60842 14.5664 0.742188V1.98438H16.0312C17.3921 1.98438 18.5 3.0923 18.5 4.45312V8.68359C18.5 8.81736 18.3916 8.92578 18.2578 8.92578C18.124 8.92578 18.0156 8.81736 18.0156 8.68359V4.45312C18.0156 3.3585 17.1259 2.46875 16.0312 2.46875H14.5664V3.71094C14.5664 3.84471 14.458 3.95312 14.3242 3.95312C14.1905 3.95312 14.082 3.84471 14.082 3.71094V2.46875H9.70508V3.71094C9.70508 3.84471 9.59666 3.95312 9.46289 3.95312C9.32912 3.95312 9.2207 3.84471 9.2207 3.71094V2.46875H4.88086V3.71094C4.88086 3.84471 4.77244 3.95312 4.63867 3.95312C4.5049 3.95312 4.39648 3.84471 4.39648 3.71094V2.46875H2.96875C1.87412 2.46875 0.984375 3.3585 0.984375 4.45312V16.0312C0.984375 17.1259 1.87412 18.0156 2.96875 18.0156H8.64648C8.78025 18.0156 8.88867 18.124 8.88867 18.2578C8.88867 18.3916 8.78025 18.5 8.64648 18.5H2.96875C1.60792 18.5 0.5 17.3921 0.5 16.0312V4.45312C0.5 3.0923 1.60792 1.98438 2.96875 1.98438H4.39648V0.742188C4.39648 0.60842 4.5049 0.5 4.63867 0.5C4.77244 0.5 4.88086 0.60842 4.88086 0.742188V1.98438H9.2207V0.742188C9.2207 0.60842 9.32912 0.5 9.46289 0.5C9.59666 0.5 9.70508 0.60842 9.70508 0.742188V1.98438H14.082V0.742188C14.082 0.60842 14.1905 0.5 14.3242 0.5Z" fill="#D09172" stroke="#D09172"/>
<path d="M14.5098 10.5195C16.7096 10.5195 18.5 12.31 18.5 14.5098C18.5 16.7096 16.7096 18.5 14.5098 18.5C12.31 18.5 10.5195 16.7096 10.5195 14.5098C10.5195 12.31 12.31 10.5195 14.5098 10.5195ZM14.5098 11.0039C12.5762 11.0039 11.0039 12.5762 11.0039 14.5098C11.0039 16.4434 12.5762 18.0156 14.5098 18.0156C16.4433 18.0156 18.0156 16.4434 18.0156 14.5098C18.0156 12.5762 16.4433 11.0039 14.5098 11.0039Z" fill="#D09172" stroke="#D09172"/>
<path d="M14.5098 12.7461C14.6435 12.7461 14.752 12.8545 14.752 12.9883V14.2676H15.5859C15.7197 14.2676 15.8281 14.376 15.8281 14.5098C15.8281 14.6435 15.7197 14.752 15.5859 14.752H14.5098C14.376 14.752 14.2676 14.6435 14.2676 14.5098V12.9883C14.2676 12.8545 14.376 12.7461 14.5098 12.7461Z" fill="#D09172" stroke="#D09172"/>
<path d="M11.0957 7.55078C11.2295 7.55078 11.3379 7.65921 11.3379 7.79297C11.3379 7.92673 11.2295 8.03516 11.0957 8.03516C10.9619 8.03516 10.8535 7.92673 10.8535 7.79297C10.8535 7.65921 10.9619 7.55078 11.0957 7.55078Z" fill="#D09172" stroke="#D09172"/>
<path d="M7.86719 10.7793C8.00094 10.7793 8.10938 10.8877 8.10938 11.0215C8.10938 11.1552 8.00094 11.2637 7.86719 11.2637C7.73343 11.2637 7.625 11.1552 7.625 11.0215C7.625 10.8877 7.73343 10.7793 7.86719 10.7793Z" fill="#D09172" stroke="#D09172"/>
<path d="M4.63867 7.55078C4.77243 7.55078 4.88086 7.65921 4.88086 7.79297C4.88086 7.92673 4.77243 8.03516 4.63867 8.03516C4.50492 8.03516 4.39648 7.92673 4.39648 7.79297C4.39648 7.65921 4.50492 7.55078 4.63867 7.55078Z" fill="#D09172" stroke="#D09172"/>
<path d="M4.63867 10.7793C4.77243 10.7793 4.88086 10.8877 4.88086 11.0215C4.88086 11.1552 4.77243 11.2637 4.63867 11.2637C4.50492 11.2637 4.39648 11.1552 4.39648 11.0215C4.39648 10.8877 4.50492 10.7793 4.63867 10.7793Z" fill="#D09172" stroke="#D09172"/>
<path d="M4.63867 14.0078C4.77243 14.0078 4.88086 14.1162 4.88086 14.25C4.88086 14.3838 4.77243 14.4922 4.63867 14.4922C4.50492 14.4922 4.39648 14.3838 4.39648 14.25C4.39648 14.1162 4.50492 14.0078 4.63867 14.0078Z" fill="#D09172" stroke="#D09172"/>
<path d="M7.86719 14.0078C8.00094 14.0078 8.10938 14.1162 8.10938 14.25C8.10938 14.3838 8.00094 14.4922 7.86719 14.4922C7.73343 14.4922 7.625 14.3838 7.625 14.25C7.625 14.1162 7.73343 14.0078 7.86719 14.0078Z" fill="#D09172" stroke="#D09172"/>
<path d="M7.86719 7.55078C8.00094 7.55078 8.10938 7.65921 8.10938 7.79297C8.10938 7.92673 8.00094 8.03516 7.86719 8.03516C7.73343 8.03516 7.625 7.92673 7.625 7.79297C7.625 7.65921 7.73343 7.55078 7.86719 7.55078Z" fill="#D09172" stroke="#D09172"/>
</svg>
