<svg width="18" height="24" viewBox="0 0 18 24" fill="none" xmlns="http://www.w3.org/2000/svg">
<mask id="path-1-outside-1_211_1545" maskUnits="userSpaceOnUse" x="0" y="0" width="18" height="24" fill="black">
<rect fill="white" width="18" height="24"/>
<path d="M16.0303 16.8978C15.8214 15.8514 15.0598 15.4227 14.6244 15.2602C14.6173 15.2576 14.6101 15.2552 14.6028 15.253L11.8612 14.4444L11.0063 13.8663V13.3324C12.3849 12.6116 13.3163 11.1686 13.3163 9.51088V9.45085C14.024 9.32008 14.5566 8.77171 14.5566 8.11684C14.5566 7.76126 14.3994 7.4371 14.1426 7.19412V4.38976C14.1426 2.83289 12.7331 1.64174 11.1904 1.91433C9.09465 0.3435 6.07943 0.840337 4.61718 3.06932C4.56989 3.14145 4.55318 3.22939 4.57072 3.31383C4.58826 3.39827 4.63861 3.47229 4.71071 3.51961C4.78283 3.56688 4.87078 3.58359 4.95521 3.56605C5.03965 3.54851 5.11366 3.49816 5.161 3.42608C5.89037 2.31412 7.11844 1.65033 8.44594 1.65033C9.35115 1.65033 10.2018 1.94991 10.9058 2.51662C10.9447 2.54789 10.9902 2.5698 11.0389 2.58067C11.0875 2.59154 11.138 2.59107 11.1865 2.57929C12.366 2.29267 13.4923 3.18947 13.4923 4.38976V6.82514C13.4265 6.80566 13.3595 6.7901 13.2918 6.77855C13.2432 6.56422 13.1161 6.37845 13.0204 6.30369L11.6686 5.2512C11.3359 4.99222 10.9069 4.95439 10.6213 5.0842C7.34608 6.35028 5.38313 6.35028 5.28569 6.36424C5.0412 6.38764 4.80025 6.53193 4.72241 6.77825C4.65324 6.78995 4.58567 6.80573 4.52004 6.8251C4.53816 5.77664 4.46808 5.37641 4.61379 4.72068C4.62306 4.679 4.62403 4.63591 4.61665 4.59385C4.60926 4.5518 4.59366 4.51161 4.57073 4.47559C4.54781 4.43957 4.51802 4.40841 4.48305 4.38391C4.44809 4.3594 4.40864 4.34202 4.36696 4.33276C4.32528 4.32348 4.28218 4.3225 4.24012 4.32989C4.19806 4.33727 4.15787 4.35287 4.12185 4.37579C4.08582 4.39872 4.05467 4.42852 4.03016 4.46349C4.00566 4.49846 3.98829 4.53791 3.97904 4.5796C3.80779 5.35019 3.89205 5.80663 3.86977 7.19399C3.61297 7.43697 3.45581 7.76109 3.45581 8.11667C3.45581 8.77154 3.98845 9.31991 4.69606 9.45067V9.45405C4.69606 11.0422 5.56651 12.5427 6.99444 13.3134V13.8712L6.15281 14.4403C6.08632 14.4599 3.39708 15.2525 3.37627 15.2601C2.9409 15.4226 2.17932 15.8514 1.97037 16.8979L1.02281 21.6559C1.02162 21.6618 1.02061 21.6677 1.01977 21.6737C0.894426 22.5576 1.36873 23.1915 2.33795 23.1915H5.80199C5.9816 23.1915 6.12715 23.0459 6.12715 22.8663C6.12715 22.6867 5.9816 22.5412 5.80199 22.5412H4.63044V19.4765C4.63044 19.4338 4.62204 19.3916 4.6057 19.3521C4.58936 19.3126 4.56541 19.2768 4.53521 19.2466C4.50502 19.2164 4.46917 19.1925 4.42972 19.1761C4.39027 19.1598 4.34798 19.1514 4.30528 19.1514C4.26258 19.1514 4.22029 19.1598 4.18084 19.1761C4.14139 19.1925 4.10554 19.2164 4.07535 19.2466C4.04515 19.2768 4.0212 19.3126 4.00486 19.3521C3.98852 19.3916 3.98012 19.4338 3.98012 19.4765V22.5412H2.33787C1.89417 22.5412 1.6544 22.3921 1.65102 21.9484C1.6492 21.7272 1.63953 21.9475 2.60785 17.0251C2.75344 16.2959 3.28296 15.9913 3.59316 15.8734L6.08363 15.1388L6.67973 16.8093C6.79675 17.1371 7.13014 17.2924 7.42847 17.2304L8.4488 18.1255C8.76174 18.4002 9.23595 18.4025 9.55166 18.1269L10.5787 17.2303C10.8854 17.2941 11.2137 17.1299 11.3281 16.8092L11.9235 15.1407L14.4073 15.8734C14.7174 15.9914 15.2469 16.2959 15.3925 17.025C16.3771 22.0299 16.3582 21.7456 16.3486 21.9826C16.3331 22.3741 16.1279 22.5411 15.6626 22.5411H14.032V19.4765C14.032 19.2969 13.8864 19.1514 13.7068 19.1514C13.5272 19.1514 13.3817 19.2969 13.3817 19.4765V22.5412H7.31942C7.27672 22.5412 7.23443 22.5496 7.19498 22.5659C7.15553 22.5823 7.11968 22.6062 7.08949 22.6364C7.05929 22.6666 7.03534 22.7024 7.019 22.7419C7.00266 22.7813 6.99426 22.8236 6.99426 22.8663C6.99426 22.909 7.00266 22.9513 7.019 22.9908C7.03534 23.0302 7.05929 23.0661 7.08949 23.0963C7.11968 23.1265 7.15553 23.1504 7.19498 23.1667C7.23443 23.1831 7.27672 23.1915 7.31942 23.1915H15.6626C16.4659 23.1915 16.9924 22.7495 16.9998 21.9534C17.0007 21.8271 17.0257 21.9538 16.0303 16.8978ZM13.3163 7.44993C14.1035 7.68389 14.0997 8.55096 13.3163 8.78376V7.44993ZM4.69593 8.78376C3.91104 8.55049 3.91039 7.68346 4.69593 7.44993V8.78376ZM5.34624 9.45418V7.01251C5.35058 7.01173 7.72766 6.94208 10.8566 5.69052L10.8818 5.68072C10.9449 5.66022 11.0989 5.63201 11.269 5.76437L12.602 6.80222C12.6944 6.91512 12.666 6.83793 12.666 9.51088C12.666 10.9569 11.8311 12.2097 10.6077 12.8036C10.5294 12.8185 9.23712 13.5009 7.72827 12.9362C6.30724 12.3948 5.34624 10.9973 5.34624 9.45418ZM10.356 13.6066V13.9736L9.52669 15.9556L8.48413 15.9557C8.28098 15.4721 7.60154 13.854 7.64458 13.9559V13.5973C8.54208 13.9012 9.50008 13.887 10.356 13.6066ZM7.29719 16.5936C7.28808 16.5932 7.31851 16.6555 6.67821 14.87L7.18012 14.5307L7.86658 16.1714L7.29719 16.5936ZM9.12408 17.637C9.08992 17.6667 9.04616 17.683 9.0009 17.683C8.95563 17.6829 8.91191 17.6665 8.87781 17.6367L8.01035 16.8757L8.37603 16.6059H9.63574L9.99765 16.8744L9.12408 17.637ZM10.7151 16.5923C10.7093 16.5981 10.7196 16.5968 10.1415 16.1714L10.8279 14.5307L11.3298 14.87L10.7151 16.5923Z"/>
</mask>
<path d="M16.0303 16.8978C15.8214 15.8514 15.0598 15.4227 14.6244 15.2602C14.6173 15.2576 14.6101 15.2552 14.6028 15.253L11.8612 14.4444L11.0063 13.8663V13.3324C12.3849 12.6116 13.3163 11.1686 13.3163 9.51088V9.45085C14.024 9.32008 14.5566 8.77171 14.5566 8.11684C14.5566 7.76126 14.3994 7.4371 14.1426 7.19412V4.38976C14.1426 2.83289 12.7331 1.64174 11.1904 1.91433C9.09465 0.3435 6.07943 0.840337 4.61718 3.06932C4.56989 3.14145 4.55318 3.22939 4.57072 3.31383C4.58826 3.39827 4.63861 3.47229 4.71071 3.51961C4.78283 3.56688 4.87078 3.58359 4.95521 3.56605C5.03965 3.54851 5.11366 3.49816 5.161 3.42608C5.89037 2.31412 7.11844 1.65033 8.44594 1.65033C9.35115 1.65033 10.2018 1.94991 10.9058 2.51662C10.9447 2.54789 10.9902 2.5698 11.0389 2.58067C11.0875 2.59154 11.138 2.59107 11.1865 2.57929C12.366 2.29267 13.4923 3.18947 13.4923 4.38976V6.82514C13.4265 6.80566 13.3595 6.7901 13.2918 6.77855C13.2432 6.56422 13.1161 6.37845 13.0204 6.30369L11.6686 5.2512C11.3359 4.99222 10.9069 4.95439 10.6213 5.0842C7.34608 6.35028 5.38313 6.35028 5.28569 6.36424C5.0412 6.38764 4.80025 6.53193 4.72241 6.77825C4.65324 6.78995 4.58567 6.80573 4.52004 6.8251C4.53816 5.77664 4.46808 5.37641 4.61379 4.72068C4.62306 4.679 4.62403 4.63591 4.61665 4.59385C4.60926 4.5518 4.59366 4.51161 4.57073 4.47559C4.54781 4.43957 4.51802 4.40841 4.48305 4.38391C4.44809 4.3594 4.40864 4.34202 4.36696 4.33276C4.32528 4.32348 4.28218 4.3225 4.24012 4.32989C4.19806 4.33727 4.15787 4.35287 4.12185 4.37579C4.08582 4.39872 4.05467 4.42852 4.03016 4.46349C4.00566 4.49846 3.98829 4.53791 3.97904 4.5796C3.80779 5.35019 3.89205 5.80663 3.86977 7.19399C3.61297 7.43697 3.45581 7.76109 3.45581 8.11667C3.45581 8.77154 3.98845 9.31991 4.69606 9.45067V9.45405C4.69606 11.0422 5.56651 12.5427 6.99444 13.3134V13.8712L6.15281 14.4403C6.08632 14.4599 3.39708 15.2525 3.37627 15.2601C2.9409 15.4226 2.17932 15.8514 1.97037 16.8979L1.02281 21.6559C1.02162 21.6618 1.02061 21.6677 1.01977 21.6737C0.894426 22.5576 1.36873 23.1915 2.33795 23.1915H5.80199C5.9816 23.1915 6.12715 23.0459 6.12715 22.8663C6.12715 22.6867 5.9816 22.5412 5.80199 22.5412H4.63044V19.4765C4.63044 19.4338 4.62204 19.3916 4.6057 19.3521C4.58936 19.3126 4.56541 19.2768 4.53521 19.2466C4.50502 19.2164 4.46917 19.1925 4.42972 19.1761C4.39027 19.1598 4.34798 19.1514 4.30528 19.1514C4.26258 19.1514 4.22029 19.1598 4.18084 19.1761C4.14139 19.1925 4.10554 19.2164 4.07535 19.2466C4.04515 19.2768 4.0212 19.3126 4.00486 19.3521C3.98852 19.3916 3.98012 19.4338 3.98012 19.4765V22.5412H2.33787C1.89417 22.5412 1.6544 22.3921 1.65102 21.9484C1.6492 21.7272 1.63953 21.9475 2.60785 17.0251C2.75344 16.2959 3.28296 15.9913 3.59316 15.8734L6.08363 15.1388L6.67973 16.8093C6.79675 17.1371 7.13014 17.2924 7.42847 17.2304L8.4488 18.1255C8.76174 18.4002 9.23595 18.4025 9.55166 18.1269L10.5787 17.2303C10.8854 17.2941 11.2137 17.1299 11.3281 16.8092L11.9235 15.1407L14.4073 15.8734C14.7174 15.9914 15.2469 16.2959 15.3925 17.025C16.3771 22.0299 16.3582 21.7456 16.3486 21.9826C16.3331 22.3741 16.1279 22.5411 15.6626 22.5411H14.032V19.4765C14.032 19.2969 13.8864 19.1514 13.7068 19.1514C13.5272 19.1514 13.3817 19.2969 13.3817 19.4765V22.5412H7.31942C7.27672 22.5412 7.23443 22.5496 7.19498 22.5659C7.15553 22.5823 7.11968 22.6062 7.08949 22.6364C7.05929 22.6666 7.03534 22.7024 7.019 22.7419C7.00266 22.7813 6.99426 22.8236 6.99426 22.8663C6.99426 22.909 7.00266 22.9513 7.019 22.9908C7.03534 23.0302 7.05929 23.0661 7.08949 23.0963C7.11968 23.1265 7.15553 23.1504 7.19498 23.1667C7.23443 23.1831 7.27672 23.1915 7.31942 23.1915H15.6626C16.4659 23.1915 16.9924 22.7495 16.9998 21.9534C17.0007 21.8271 17.0257 21.9538 16.0303 16.8978ZM13.3163 7.44993C14.1035 7.68389 14.0997 8.55096 13.3163 8.78376V7.44993ZM4.69593 8.78376C3.91104 8.55049 3.91039 7.68346 4.69593 7.44993V8.78376ZM5.34624 9.45418V7.01251C5.35058 7.01173 7.72766 6.94208 10.8566 5.69052L10.8818 5.68072C10.9449 5.66022 11.0989 5.63201 11.269 5.76437L12.602 6.80222C12.6944 6.91512 12.666 6.83793 12.666 9.51088C12.666 10.9569 11.8311 12.2097 10.6077 12.8036C10.5294 12.8185 9.23712 13.5009 7.72827 12.9362C6.30724 12.3948 5.34624 10.9973 5.34624 9.45418ZM10.356 13.6066V13.9736L9.52669 15.9556L8.48413 15.9557C8.28098 15.4721 7.60154 13.854 7.64458 13.9559V13.5973C8.54208 13.9012 9.50008 13.887 10.356 13.6066ZM7.29719 16.5936C7.28808 16.5932 7.31851 16.6555 6.67821 14.87L7.18012 14.5307L7.86658 16.1714L7.29719 16.5936ZM9.12408 17.637C9.08992 17.6667 9.04616 17.683 9.0009 17.683C8.95563 17.6829 8.91191 17.6665 8.87781 17.6367L8.01035 16.8757L8.37603 16.6059H9.63574L9.99765 16.8744L9.12408 17.637ZM10.7151 16.5923C10.7093 16.5981 10.7196 16.5968 10.1415 16.1714L10.8279 14.5307L11.3298 14.87L10.7151 16.5923Z" fill="#D09172"/>
<path d="M16.0303 16.8978C15.8214 15.8514 15.0598 15.4227 14.6244 15.2602C14.6173 15.2576 14.6101 15.2552 14.6028 15.253L11.8612 14.4444L11.0063 13.8663V13.3324C12.3849 12.6116 13.3163 11.1686 13.3163 9.51088V9.45085C14.024 9.32008 14.5566 8.77171 14.5566 8.11684C14.5566 7.76126 14.3994 7.4371 14.1426 7.19412V4.38976C14.1426 2.83289 12.7331 1.64174 11.1904 1.91433C9.09465 0.3435 6.07943 0.840337 4.61718 3.06932C4.56989 3.14145 4.55318 3.22939 4.57072 3.31383C4.58826 3.39827 4.63861 3.47229 4.71071 3.51961C4.78283 3.56688 4.87078 3.58359 4.95521 3.56605C5.03965 3.54851 5.11366 3.49816 5.161 3.42608C5.89037 2.31412 7.11844 1.65033 8.44594 1.65033C9.35115 1.65033 10.2018 1.94991 10.9058 2.51662C10.9447 2.54789 10.9902 2.5698 11.0389 2.58067C11.0875 2.59154 11.138 2.59107 11.1865 2.57929C12.366 2.29267 13.4923 3.18947 13.4923 4.38976V6.82514C13.4265 6.80566 13.3595 6.7901 13.2918 6.77855C13.2432 6.56422 13.1161 6.37845 13.0204 6.30369L11.6686 5.2512C11.3359 4.99222 10.9069 4.95439 10.6213 5.0842C7.34608 6.35028 5.38313 6.35028 5.28569 6.36424C5.0412 6.38764 4.80025 6.53193 4.72241 6.77825C4.65324 6.78995 4.58567 6.80573 4.52004 6.8251C4.53816 5.77664 4.46808 5.37641 4.61379 4.72068C4.62306 4.679 4.62403 4.63591 4.61665 4.59385C4.60926 4.5518 4.59366 4.51161 4.57073 4.47559C4.54781 4.43957 4.51802 4.40841 4.48305 4.38391C4.44809 4.3594 4.40864 4.34202 4.36696 4.33276C4.32528 4.32348 4.28218 4.3225 4.24012 4.32989C4.19806 4.33727 4.15787 4.35287 4.12185 4.37579C4.08582 4.39872 4.05467 4.42852 4.03016 4.46349C4.00566 4.49846 3.98829 4.53791 3.97904 4.5796C3.80779 5.35019 3.89205 5.80663 3.86977 7.19399C3.61297 7.43697 3.45581 7.76109 3.45581 8.11667C3.45581 8.77154 3.98845 9.31991 4.69606 9.45067V9.45405C4.69606 11.0422 5.56651 12.5427 6.99444 13.3134V13.8712L6.15281 14.4403C6.08632 14.4599 3.39708 15.2525 3.37627 15.2601C2.9409 15.4226 2.17932 15.8514 1.97037 16.8979L1.02281 21.6559C1.02162 21.6618 1.02061 21.6677 1.01977 21.6737C0.894426 22.5576 1.36873 23.1915 2.33795 23.1915H5.80199C5.9816 23.1915 6.12715 23.0459 6.12715 22.8663C6.12715 22.6867 5.9816 22.5412 5.80199 22.5412H4.63044V19.4765C4.63044 19.4338 4.62204 19.3916 4.6057 19.3521C4.58936 19.3126 4.56541 19.2768 4.53521 19.2466C4.50502 19.2164 4.46917 19.1925 4.42972 19.1761C4.39027 19.1598 4.34798 19.1514 4.30528 19.1514C4.26258 19.1514 4.22029 19.1598 4.18084 19.1761C4.14139 19.1925 4.10554 19.2164 4.07535 19.2466C4.04515 19.2768 4.0212 19.3126 4.00486 19.3521C3.98852 19.3916 3.98012 19.4338 3.98012 19.4765V22.5412H2.33787C1.89417 22.5412 1.6544 22.3921 1.65102 21.9484C1.6492 21.7272 1.63953 21.9475 2.60785 17.0251C2.75344 16.2959 3.28296 15.9913 3.59316 15.8734L6.08363 15.1388L6.67973 16.8093C6.79675 17.1371 7.13014 17.2924 7.42847 17.2304L8.4488 18.1255C8.76174 18.4002 9.23595 18.4025 9.55166 18.1269L10.5787 17.2303C10.8854 17.2941 11.2137 17.1299 11.3281 16.8092L11.9235 15.1407L14.4073 15.8734C14.7174 15.9914 15.2469 16.2959 15.3925 17.025C16.3771 22.0299 16.3582 21.7456 16.3486 21.9826C16.3331 22.3741 16.1279 22.5411 15.6626 22.5411H14.032V19.4765C14.032 19.2969 13.8864 19.1514 13.7068 19.1514C13.5272 19.1514 13.3817 19.2969 13.3817 19.4765V22.5412H7.31942C7.27672 22.5412 7.23443 22.5496 7.19498 22.5659C7.15553 22.5823 7.11968 22.6062 7.08949 22.6364C7.05929 22.6666 7.03534 22.7024 7.019 22.7419C7.00266 22.7813 6.99426 22.8236 6.99426 22.8663C6.99426 22.909 7.00266 22.9513 7.019 22.9908C7.03534 23.0302 7.05929 23.0661 7.08949 23.0963C7.11968 23.1265 7.15553 23.1504 7.19498 23.1667C7.23443 23.1831 7.27672 23.1915 7.31942 23.1915H15.6626C16.4659 23.1915 16.9924 22.7495 16.9998 21.9534C17.0007 21.8271 17.0257 21.9538 16.0303 16.8978ZM13.3163 7.44993C14.1035 7.68389 14.0997 8.55096 13.3163 8.78376V7.44993ZM4.69593 8.78376C3.91104 8.55049 3.91039 7.68346 4.69593 7.44993V8.78376ZM5.34624 9.45418V7.01251C5.35058 7.01173 7.72766 6.94208 10.8566 5.69052L10.8818 5.68072C10.9449 5.66022 11.0989 5.63201 11.269 5.76437L12.602 6.80222C12.6944 6.91512 12.666 6.83793 12.666 9.51088C12.666 10.9569 11.8311 12.2097 10.6077 12.8036C10.5294 12.8185 9.23712 13.5009 7.72827 12.9362C6.30724 12.3948 5.34624 10.9973 5.34624 9.45418ZM10.356 13.6066V13.9736L9.52669 15.9556L8.48413 15.9557C8.28098 15.4721 7.60154 13.854 7.64458 13.9559V13.5973C8.54208 13.9012 9.50008 13.887 10.356 13.6066ZM7.29719 16.5936C7.28808 16.5932 7.31851 16.6555 6.67821 14.87L7.18012 14.5307L7.86658 16.1714L7.29719 16.5936ZM9.12408 17.637C9.08992 17.6667 9.04616 17.683 9.0009 17.683C8.95563 17.6829 8.91191 17.6665 8.87781 17.6367L8.01035 16.8757L8.37603 16.6059H9.63574L9.99765 16.8744L9.12408 17.637ZM10.7151 16.5923C10.7093 16.5981 10.7196 16.5968 10.1415 16.1714L10.8279 14.5307L11.3298 14.87L10.7151 16.5923Z" stroke="#D09172" stroke-width="0.4" mask="url(#path-1-outside-1_211_1545)"/>
</svg>
