<svg width="98" height="17" viewBox="0 0 98 17" fill="none" xmlns="http://www.w3.org/2000/svg">
<path d="M8.55696 13.6975L12.707 16.2075C13.467 16.6675 14.397 15.9875 14.197 15.1275L13.097 10.4075L16.767 7.2275C17.437 6.6475 17.077 5.5475 16.197 5.4775L11.367 5.0675L9.47696 0.6075C9.13696 -0.2025 7.97696 -0.2025 7.63696 0.6075L5.74696 5.0575L0.916957 5.4675C0.0369575 5.5375 -0.323043 6.6375 0.346957 7.2175L4.01696 10.3975L2.91696 15.1175C2.71696 15.9775 3.64696 16.6575 4.40696 16.1975L8.55696 13.6975Z" fill="#FADE01"/>
<path d="M28.6702 13.6975L32.8202 16.2075C33.5802 16.6675 34.5102 15.9875 34.3102 15.1275L33.2102 10.4075L36.8802 7.2275C37.5502 6.6475 37.1902 5.5475 36.3102 5.4775L31.4802 5.0675L29.5902 0.6075C29.2502 -0.2025 28.0902 -0.2025 27.7502 0.6075L25.8602 5.0575L21.0302 5.4675C20.1502 5.5375 19.7902 6.6375 20.4602 7.2175L24.1302 10.3975L23.0302 15.1175C22.8302 15.9775 23.7602 16.6575 24.5202 16.1975L28.6702 13.6975Z" fill="#FADE01"/>
<path d="M48.7835 13.6975L52.9335 16.2075C53.6935 16.6675 54.6235 15.9875 54.4235 15.1275L53.3235 10.4075L56.9935 7.2275C57.6635 6.6475 57.3035 5.5475 56.4235 5.4775L51.5935 5.0675L49.7035 0.6075C49.3635 -0.2025 48.2035 -0.2025 47.8635 0.6075L45.9735 5.0575L41.1435 5.4675C40.2635 5.5375 39.9035 6.6375 40.5735 7.2175L44.2435 10.3975L43.1435 15.1175C42.9435 15.9775 43.8735 16.6575 44.6335 16.1975L48.7835 13.6975Z" fill="#FADE01"/>
<path d="M68.8988 13.6975L73.0488 16.2075C73.8088 16.6675 74.7388 15.9875 74.5388 15.1275L73.4388 10.4075L77.1088 7.2275C77.7788 6.6475 77.4188 5.5475 76.5388 5.4775L71.7088 5.0675L69.8188 0.6075C69.4788 -0.2025 68.3188 -0.2025 67.9788 0.6075L66.0888 5.0575L61.2588 5.4675C60.3788 5.5375 60.0188 6.6375 60.6888 7.2175L64.3588 10.3975L63.2588 15.1175C63.0588 15.9775 63.9888 16.6575 64.7488 16.1975L68.8988 13.6975Z" fill="#FADE01"/>
<path d="M89.014 13.6975L93.164 16.2075C93.924 16.6675 94.854 15.9875 94.654 15.1275L93.554 10.4075L97.224 7.2275C97.894 6.6475 97.534 5.5475 96.654 5.4775L91.824 5.0675L89.934 0.6075C89.594 -0.2025 88.434 -0.2025 88.094 0.6075L86.204 5.0575L81.374 5.4675C80.494 5.5375 80.134 6.6375 80.804 7.2175L84.474 10.3975L83.374 15.1175C83.174 15.9775 84.104 16.6575 84.864 16.1975L89.014 13.6975Z" fill="#FADE01"/>
</svg>
