<svg width="30" height="30" viewBox="0 0 30 30" fill="none" xmlns="http://www.w3.org/2000/svg">
<circle cx="15" cy="15" r="15" fill="url(#paint0_linear_211_485)"/>
<path d="M22.1973 15.5303C22.4902 15.2374 22.4902 14.7626 22.1973 14.4697L17.4244 9.6967C17.1315 9.40381 16.6566 9.40381 16.3637 9.6967C16.0708 9.98959 16.0708 10.4645 16.3637 10.7574L20.6063 15L16.3637 19.2426C16.0708 19.5355 16.0708 20.0104 16.3637 20.3033C16.6566 20.5962 17.1315 20.5962 17.4244 20.3033L22.1973 15.5303ZM8.33366 14.25C7.91945 14.25 7.58366 14.5858 7.58366 15C7.58366 15.4142 7.91945 15.75 8.33366 15.75L8.33366 14.25ZM21.667 14.25L8.33366 14.25L8.33366 15.75L21.667 15.75L21.667 14.25Z" fill="#171615"/>
<defs>
<linearGradient id="paint0_linear_211_485" x1="0" y1="0" x2="33.1184" y2="26.0329" gradientUnits="userSpaceOnUse">
<stop stop-color="#F4E07A"/>
<stop offset="1" stop-color="#C1963C"/>
</linearGradient>
</defs>
</svg>
