<svg width="43" height="32" viewBox="0 0 43 32" fill="none" xmlns="http://www.w3.org/2000/svg">
<circle opacity="0.5" cx="13.0489" cy="13.0489" r="13.0489" fill="#EFBBA3"/>
<path d="M39.8823 8.75214H12.6306C11.0315 8.75214 9.72461 10.0533 9.72461 11.6581V29.094C9.72461 30.6994 11.0324 32 12.6306 32H39.8823C41.4813 32 42.7882 30.6988 42.7882 29.094V11.6581C42.7882 10.0529 41.4807 8.75214 39.8823 8.75214ZM39.436 10.6895L27.0071 23.159C26.6284 23.5388 25.8847 23.5391 25.5058 23.159L13.0768 10.6895H39.436ZM11.6619 28.7379V12.0143L19.9966 20.3761L11.6619 28.7379ZM13.0768 30.0627L21.3643 21.7482L24.1337 24.5267C25.2686 25.6652 27.2447 25.6648 28.3792 24.5267L31.1486 21.7483L39.436 30.0627H13.0768ZM40.8509 28.7379L32.5162 20.3761L40.8509 12.0143V28.7379Z" fill="#7E3C24"/>
</svg>
