<svg width="37" height="38" viewBox="0 0 37 38" fill="none" xmlns="http://www.w3.org/2000/svg">
<circle opacity="0.5" cx="13.4588" cy="13.4588" r="13.4588" fill="#EFBBA3"/>
<path d="M25.0402 6.86165C24.6754 6.85901 24.3778 7.15259 24.3752 7.51675C24.3726 7.88092 24.6655 8.17845 25.0303 8.18109C25.3945 8.18373 25.692 7.89082 25.6946 7.52665C25.6973 7.16248 25.4044 6.86495 25.0402 6.86165ZM25.0102 10.8199C22.4629 10.8018 20.3768 12.8568 20.3576 15.4033C20.3384 17.9496 22.3944 20.0367 24.9409 20.0559L24.9763 20.056C27.5065 20.056 29.5744 18.0072 29.5935 15.4725C29.6127 12.9263 27.5567 10.8391 25.0102 10.8199ZM24.9761 18.7366L24.9508 18.7365C23.1319 18.7228 21.6632 17.2319 21.6769 15.4132C21.6906 13.6025 23.1676 12.1392 24.9749 12.1392L25.0003 12.1393C26.8192 12.153 28.2879 13.6438 28.2741 15.4626C28.2604 17.2732 26.7835 18.7366 24.9761 18.7366ZM27.854 7.36198C27.5108 7.2402 27.1335 7.41997 27.0117 7.76342C26.89 8.10687 27.0698 8.4839 27.4131 8.60569C30.319 9.63558 32.2556 12.4032 32.2324 15.4924C32.2297 15.8567 32.5228 16.1543 32.8872 16.1571H32.8923C33.2542 16.1571 33.5491 15.865 33.5518 15.5023C33.5793 11.851 31.2895 8.57963 27.854 7.36198Z" fill="#7E3C24"/>
<path d="M29.0231 29.0571C33.4111 23.4089 36.1534 20.4636 36.1904 15.522C36.2368 9.30457 31.1912 4.22241 24.9742 4.22241C18.8298 4.22241 13.8069 9.19855 13.7601 15.3537C13.7224 20.4293 16.5156 23.3706 20.9339 29.0562C16.5385 29.713 13.7601 31.3634 13.7601 33.3821C13.7601 34.7343 15.0101 35.9477 17.2797 36.7988C19.3455 37.5734 22.0785 38.0001 24.9753 38.0001C27.872 38.0001 30.6051 37.5734 32.6708 36.7988C34.9405 35.9477 36.1904 34.7342 36.1904 33.382C36.1904 31.3644 33.4146 29.7144 29.0231 29.0571ZM15.0795 15.3637C15.1207 9.9323 19.5524 5.54185 24.9743 5.54185C30.4605 5.54185 34.9119 10.0272 34.871 15.5121C34.8359 20.205 31.9277 23.097 27.2848 29.1495C26.4567 30.2285 25.6961 31.2487 24.9763 32.2467C24.2585 31.2481 23.5131 30.2462 22.6726 29.1491C17.8377 22.8432 15.0438 20.1698 15.0795 15.3637ZM24.9753 36.6807C19.3115 36.6807 15.0795 34.9392 15.0795 33.3821C15.0795 32.2273 17.6094 30.7685 21.8632 30.2634C22.8035 31.4971 23.6279 32.618 24.4364 33.7627C24.4973 33.8489 24.5779 33.9192 24.6716 33.9678C24.7652 34.0163 24.8692 34.0417 24.9747 34.0418H24.9753C25.0807 34.0418 25.1846 34.0165 25.2782 33.9681C25.3718 33.9197 25.4525 33.8496 25.5135 33.7636C26.3144 32.6338 27.1613 31.4852 28.0936 30.2641C32.3434 30.7698 34.871 32.2281 34.871 33.3821C34.8709 34.9392 30.639 36.6807 24.9753 36.6807Z" fill="#7E3C24"/>
</svg>
