<svg width="41" height="38" viewBox="0 0 41 38" fill="none" xmlns="http://www.w3.org/2000/svg">
<circle opacity="0.5" cx="13.4184" cy="13.4184" r="13.4184" fill="#EFBBA3"/>
<path d="M34.6237 26.2731C33.9989 25.6225 33.2453 25.2747 32.4465 25.2747C31.6542 25.2747 30.8941 25.6161 30.2435 26.2667L28.208 28.2957C28.0405 28.2055 27.8731 28.1218 27.712 28.0381C27.4801 27.9221 27.2611 27.8126 27.0743 27.6967C25.1676 26.4857 23.4349 24.9075 21.773 22.8655C20.9678 21.8478 20.4267 20.9911 20.0338 20.1215C20.562 19.6384 21.0515 19.1359 21.5282 18.6528C21.7086 18.4724 21.8889 18.2856 22.0693 18.1053C23.422 16.7526 23.422 15.0005 22.0693 13.6478L20.3108 11.8892C20.1111 11.6896 19.9049 11.4834 19.7117 11.2773C19.3252 10.8779 18.9194 10.4657 18.5007 10.0792C17.8759 9.4608 17.1287 9.13229 16.3428 9.13229C15.5569 9.13229 14.7968 9.4608 14.1527 10.0792L14.1398 10.0921L11.9497 12.3015C11.1252 13.126 10.655 14.1309 10.5519 15.2968C10.3973 17.1777 10.9513 18.9298 11.3764 20.0764C12.4199 22.8913 13.9788 25.5001 16.3041 28.2957C19.1255 31.6646 22.5202 34.325 26.398 36.1994C27.8795 36.9016 29.857 37.7325 32.0665 37.8742C32.2017 37.8807 32.3435 37.8871 32.4723 37.8871C33.9603 37.8871 35.2099 37.3525 36.189 36.2896C36.1955 36.2767 36.2084 36.2703 36.2148 36.2574C36.5498 35.8516 36.9362 35.4844 37.3421 35.0915C37.619 34.8274 37.9025 34.5504 38.1794 34.2605C38.8172 33.5971 39.1521 32.8241 39.1521 32.0318C39.1521 31.233 38.8107 30.4665 38.1601 29.8224L34.6237 26.2731ZM36.9298 33.056C36.9234 33.056 36.9234 33.0624 36.9298 33.056C36.6786 33.3265 36.4209 33.5713 36.1439 33.8418C35.7252 34.2412 35.3001 34.6599 34.9007 35.1301C34.2501 35.8258 33.4836 36.1543 32.4787 36.1543C32.3821 36.1543 32.279 36.1543 32.1824 36.1479C30.2693 36.0255 28.4914 35.2783 27.1581 34.6406C23.5122 32.8756 20.3108 30.3699 17.6504 27.1942C15.4539 24.5468 13.9852 22.099 13.0125 19.4709C12.4135 17.8669 12.1945 16.6173 12.2911 15.4385C12.3555 14.6849 12.6454 14.06 13.18 13.5254L15.3766 11.3288C15.6922 11.0325 16.0272 10.8715 16.3557 10.8715C16.7615 10.8715 17.09 11.1163 17.2961 11.3224L17.3155 11.3417C17.7084 11.7089 18.082 12.0889 18.4749 12.4947C18.6746 12.7009 18.8807 12.907 19.0869 13.1196L20.8454 14.8781C21.5282 15.5609 21.5282 16.1922 20.8454 16.875C20.6586 17.0618 20.4782 17.2486 20.2914 17.4289C19.7503 17.9829 19.235 18.4982 18.6746 19.0006C18.6617 19.0135 18.6489 19.02 18.6424 19.0329C18.0884 19.5868 18.1915 20.1279 18.3075 20.4951L18.3268 20.553C18.7841 21.661 19.4283 22.7045 20.4074 23.9477L20.4138 23.9542C22.1917 26.1443 24.0661 27.8513 26.1339 29.1589C26.398 29.3264 26.6685 29.4616 26.9262 29.5905C27.1581 29.7064 27.3771 29.8159 27.5639 29.9319C27.5896 29.9447 27.6154 29.9641 27.6412 29.9769C27.8602 30.0865 28.0663 30.138 28.2789 30.138C28.8135 30.138 29.1485 29.803 29.258 29.6935L31.461 27.4905C31.68 27.2715 32.0278 27.0074 32.4336 27.0074C32.833 27.0074 33.1615 27.2586 33.3612 27.4776L33.3741 27.4905L36.9234 31.0398C37.5868 31.6968 37.5868 32.3732 36.9298 33.056ZM26.997 14.6269C28.6847 14.9103 30.2178 15.709 31.4417 16.9329C32.6655 18.1568 33.4578 19.6899 33.7477 21.3776C33.8186 21.8027 34.1857 22.099 34.6044 22.099C34.656 22.099 34.701 22.0926 34.7526 22.0861C35.2292 22.0088 35.5449 21.5579 35.4676 21.0813C35.1197 19.0393 34.1535 17.1777 32.6784 15.7026C31.2033 14.2275 29.3417 13.2613 27.2998 12.9134C26.8231 12.8361 26.3786 13.1518 26.2949 13.622C26.2112 14.0922 26.5204 14.5496 26.997 14.6269ZM40.9879 20.83C40.4146 17.4676 38.83 14.4079 36.3952 11.973C33.9603 9.5381 30.9006 7.95349 27.5381 7.3802C27.0679 7.29646 26.6234 7.61854 26.5397 8.08876C26.4624 8.56544 26.778 9.0099 27.2547 9.09364C30.2564 9.60251 32.994 11.0261 35.1713 13.1969C37.3485 15.3741 38.7656 18.1117 39.2745 21.1135C39.3454 21.5386 39.7125 21.8349 40.1312 21.8349C40.1828 21.8349 40.2278 21.8285 40.2794 21.822C40.7496 21.7512 41.0717 21.3003 40.9879 20.83Z" fill="#7E3C24"/>
</svg>
